<svg width="35" height="25" viewBox="0 0 35 25" fill="none" xmlns="http://www.w3.org/2000/svg">
<path d="M24.2362 13.124L32.9217 24H1V1H32.9217L24.2362 11.876L23.7379 12.5L24.2362 13.124Z" stroke="#D60000" stroke-width="2"/>
<path d="M12.9418 18.112C12.2138 18.112 11.5908 17.9627 11.0728 17.664C10.5595 17.3653 10.1395 16.9593 9.81281 16.446C9.49081 15.928 9.25515 15.3423 9.10581 14.689C8.95648 14.031 8.88415 13.345 8.88881 12.631C8.90281 11.581 9.09648 10.671 9.46981 9.901C9.84781 9.12633 10.3518 8.529 10.9818 8.109C11.6118 7.689 12.3211 7.479 13.1098 7.479C13.8471 7.479 14.4701 7.619 14.9788 7.899C15.4921 8.17433 15.9051 8.55467 16.2178 9.04C16.5351 9.52533 16.7638 10.0853 16.9038 10.72C17.0438 11.35 17.1115 12.0197 17.1068 12.729C17.0975 13.8117 16.9131 14.7567 16.5538 15.564C16.1991 16.3667 15.7091 16.992 15.0838 17.44C14.4585 17.888 13.7445 18.112 12.9418 18.112ZM12.9978 16.474C13.5998 16.4787 14.0571 16.1823 14.3698 15.585C14.6871 14.9877 14.8458 14.059 14.8458 12.799C14.8458 12.0523 14.7805 11.4037 14.6498 10.853C14.5191 10.3023 14.3185 9.87533 14.0478 9.572C13.7771 9.26867 13.4365 9.117 13.0258 9.117C12.4238 9.117 11.9618 9.40633 11.6398 9.985C11.3225 10.5637 11.1638 11.427 11.1638 12.575C11.1638 13.317 11.2291 13.982 11.3598 14.57C11.4951 15.1533 11.6981 15.6153 11.9688 15.956C12.2395 16.2967 12.5825 16.4693 12.9978 16.474Z" fill="#D60000"/>
</svg>
