<svg width="35" height="25" viewBox="0 0 35 25" fill="none" xmlns="http://www.w3.org/2000/svg">
<path d="M24.2362 13.124L32.9217 24H1V1H32.9217L24.2362 11.876L23.7379 12.5L24.2362 13.124Z" stroke="#D60000" stroke-width="2"/>
<path d="M12.6893 18V9.866C12.4233 9.93133 12.1619 9.98967 11.9053 10.041C11.6486 10.0923 11.3896 10.1413 11.1283 10.188L10.9323 8.9C11.1563 8.83933 11.4083 8.753 11.6883 8.641C11.9729 8.529 12.2553 8.40533 12.5353 8.27C12.8199 8.13467 13.0789 7.99933 13.3123 7.864C13.5503 7.724 13.7346 7.60033 13.8653 7.493L14.9013 7.64L14.8943 18H12.6893Z" fill="#D60000"/>
</svg>
