<svg width="35" height="25" viewBox="0 0 35 25" fill="none" xmlns="http://www.w3.org/2000/svg">
<path d="M24.2362 13.124L32.9217 24H1V1H32.9217L24.2362 11.876L23.7379 12.5L24.2362 13.124Z" stroke="#D60000" stroke-width="2"/>
<path d="M7.67207 18V9.866C7.40607 9.93133 7.14474 9.98967 6.88807 10.041C6.6314 10.0923 6.3724 10.1413 6.11107 10.188L5.91507 8.9C6.13907 8.83933 6.39107 8.753 6.67107 8.641C6.95574 8.529 7.23807 8.40533 7.51807 8.27C7.80274 8.13467 8.06174 7.99933 8.29507 7.864C8.53307 7.724 8.7174 7.60033 8.84807 7.493L9.88407 7.64L9.87707 18H7.67207ZM15.8526 18.112C15.1246 18.112 14.5016 17.9627 13.9836 17.664C13.4702 17.3653 13.0502 16.9593 12.7236 16.446C12.4016 15.928 12.1659 15.3423 12.0166 14.689C11.8672 14.031 11.7949 13.345 11.7996 12.631C11.8136 11.581 12.0072 10.671 12.3806 9.901C12.7586 9.12633 13.2626 8.529 13.8926 8.109C14.5226 7.689 15.2319 7.479 16.0206 7.479C16.7579 7.479 17.3809 7.619 17.8896 7.899C18.4029 8.17433 18.8159 8.55467 19.1286 9.04C19.4459 9.52533 19.6746 10.0853 19.8146 10.72C19.9546 11.35 20.0222 12.0197 20.0176 12.729C20.0082 13.8117 19.8239 14.7567 19.4646 15.564C19.1099 16.3667 18.6199 16.992 17.9946 17.44C17.3692 17.888 16.6552 18.112 15.8526 18.112ZM15.9086 16.474C16.5106 16.4787 16.9679 16.1823 17.2806 15.585C17.5979 14.9877 17.7566 14.059 17.7566 12.799C17.7566 12.0523 17.6912 11.4037 17.5606 10.853C17.4299 10.3023 17.2292 9.87533 16.9586 9.572C16.6879 9.26867 16.3472 9.117 15.9366 9.117C15.3346 9.117 14.8726 9.40633 14.5506 9.985C14.2332 10.5637 14.0746 11.427 14.0746 12.575C14.0746 13.317 14.1399 13.982 14.2706 14.57C14.4059 15.1533 14.6089 15.6153 14.8796 15.956C15.1502 16.2967 15.4932 16.4693 15.9086 16.474Z" fill="#D60000"/>
</svg>
