<svg width="35" height="25" viewBox="0 0 35 25" fill="none" xmlns="http://www.w3.org/2000/svg">
<path d="M24.2362 13.124L32.9217 24H1V1H32.9217L24.2362 11.876L23.7379 12.5L24.2362 13.124Z" stroke="#D60000" stroke-width="2"/>
<path d="M9.77852 18V9.866C9.51252 9.93133 9.25118 9.98967 8.99452 10.041C8.73785 10.0923 8.47885 10.1413 8.21752 10.188L8.02152 8.9C8.24552 8.83933 8.49752 8.753 8.77752 8.641C9.06218 8.529 9.34452 8.40533 9.62452 8.27C9.90918 8.13467 10.1682 7.99933 10.4015 7.864C10.6395 7.724 10.8238 7.60033 10.9545 7.493L11.9905 7.64L11.9835 18H9.77852ZM15.6 18V9.866C15.334 9.93133 15.0727 9.98967 14.816 10.041C14.5593 10.0923 14.3003 10.1413 14.039 10.188L13.843 8.9C14.067 8.83933 14.319 8.753 14.599 8.641C14.8837 8.529 15.166 8.40533 15.446 8.27C15.7307 8.13467 15.9897 7.99933 16.223 7.864C16.461 7.724 16.6453 7.60033 16.776 7.493L17.812 7.64L17.805 18H15.6Z" fill="#D60000"/>
</svg>
