<svg width="35" height="25" viewBox="0 0 35 25" fill="none" xmlns="http://www.w3.org/2000/svg">
<path d="M24.2362 13.124L32.9217 24H1V1H32.9217L24.2362 11.876L23.7379 12.5L24.2362 13.124Z" stroke="#D60000" stroke-width="2"/>
<path d="M8.75313 18V9.866C8.48713 9.93133 8.22579 9.98967 7.96912 10.041C7.71246 10.0923 7.45346 10.1413 7.19212 10.188L6.99612 8.9C7.22012 8.83933 7.47212 8.753 7.75213 8.641C8.03679 8.529 8.31912 8.40533 8.59912 8.27C8.88379 8.13467 9.14279 7.99933 9.37612 7.864C9.61412 7.724 9.79846 7.60033 9.92912 7.493L10.9651 7.64L10.9581 18H8.75313ZM13.0626 18L12.7616 17.041C13.1396 16.803 13.5409 16.516 13.9656 16.18C14.3949 15.844 14.8149 15.473 15.2256 15.067C15.6363 14.661 16.0096 14.2317 16.3456 13.779C16.6816 13.3217 16.9499 12.855 17.1506 12.379C17.3513 11.8983 17.4516 11.42 17.4516 10.944C17.4516 10.3793 17.3093 9.95233 17.0246 9.663C16.7446 9.369 16.3549 9.222 15.8556 9.222C15.3983 9.222 14.9619 9.30367 14.5466 9.467C14.1313 9.63033 13.8023 9.83333 13.5596 10.076L12.8106 8.879C12.9973 8.68767 13.2469 8.487 13.5596 8.277C13.8769 8.06233 14.2619 7.88033 14.7146 7.731C15.1719 7.58167 15.7016 7.507 16.3036 7.507C17.1109 7.507 17.7596 7.65633 18.2496 7.955C18.7443 8.25367 19.1013 8.65033 19.3206 9.145C19.5446 9.63967 19.6566 10.1787 19.6566 10.762C19.6566 11.462 19.4839 12.1503 19.1386 12.827C18.7979 13.499 18.3266 14.1407 17.7246 14.752C17.1273 15.3633 16.4459 15.9303 15.6806 16.453L20.0346 16.264V18H13.0626Z" fill="#D60000"/>
</svg>
