<svg width="35" height="25" viewBox="0 0 35 25" fill="none" xmlns="http://www.w3.org/2000/svg">
<path d="M24.2362 13.124L32.9217 24H1V1H32.9217L24.2362 11.876L23.7379 12.5L24.2362 13.124Z" stroke="#D60000" stroke-width="2"/>
<path d="M8.51289 18V9.866C8.24689 9.93133 7.98556 9.98967 7.72889 10.041C7.47222 10.0923 7.21322 10.1413 6.95189 10.188L6.75589 8.9C6.97989 8.83933 7.23189 8.753 7.51189 8.641C7.79656 8.529 8.07889 8.40533 8.35889 8.27C8.64356 8.13467 8.90256 7.99933 9.13589 7.864C9.37389 7.724 9.55822 7.60033 9.68889 7.493L10.7249 7.64L10.7179 18H8.51289ZM12.8084 17.867L12.7944 16.453C13.0184 16.4997 13.2517 16.5417 13.4944 16.579C13.737 16.6117 13.961 16.628 14.1664 16.628C14.731 16.628 15.2304 16.5557 15.6644 16.411C16.0984 16.2663 16.4367 16.061 16.6794 15.795C16.922 15.5243 17.0434 15.2093 17.0434 14.85C17.0434 14.5747 16.9804 14.3227 16.8544 14.094C16.7284 13.8607 16.523 13.6787 16.2384 13.548C15.9537 13.4173 15.5734 13.366 15.0974 13.394L14.2784 13.583L13.9564 12.218C14.2364 12.1667 14.5024 12.1037 14.7544 12.029C15.0064 11.9497 15.228 11.861 15.4194 11.763C15.7974 11.581 16.082 11.364 16.2734 11.112C16.4694 10.8553 16.572 10.5753 16.5814 10.272C16.6 9.87533 16.4787 9.58133 16.2174 9.39C15.956 9.19867 15.6177 9.103 15.2024 9.103C14.7264 9.103 14.318 9.18 13.9774 9.334C13.6414 9.48333 13.352 9.64433 13.1094 9.817L12.4374 8.508C12.5867 8.368 12.8247 8.21633 13.1514 8.053C13.478 7.88967 13.8537 7.752 14.2784 7.64C14.703 7.52333 15.1347 7.465 15.5734 7.465C16.2127 7.465 16.7704 7.56067 17.2464 7.752C17.7224 7.94333 18.091 8.221 18.3524 8.585C18.6184 8.94433 18.7514 9.383 18.7514 9.901C18.7514 10.3583 18.6534 10.769 18.4574 11.133C18.2614 11.4923 17.9954 11.8027 17.6594 12.064C17.3234 12.3253 16.9477 12.54 16.5324 12.708V12.484C17.1717 12.4933 17.6944 12.6193 18.1004 12.862C18.511 13.1 18.8144 13.408 19.0104 13.786C19.2064 14.1593 19.3044 14.5537 19.3044 14.969C19.3044 15.5337 19.113 16.0587 18.7304 16.544C18.3524 17.0247 17.8157 17.412 17.1204 17.706C16.4297 18 15.6154 18.147 14.6774 18.147C14.2947 18.147 13.947 18.1143 13.6344 18.049C13.3217 17.9883 13.0464 17.9277 12.8084 17.867Z" fill="#D60000"/>
</svg>
