<svg width="35" height="25" viewBox="0 0 35 25" fill="none" xmlns="http://www.w3.org/2000/svg">
<path d="M24.2362 13.124L32.9217 24H1V1H32.9217L24.2362 11.876L23.7379 12.5L24.2362 13.124Z" stroke="#D60000" stroke-width="2"/>
<path d="M7.67207 18V9.866C7.40607 9.93133 7.14474 9.98967 6.88807 10.041C6.6314 10.0923 6.3724 10.1413 6.11107 10.188L5.91507 8.9C6.13907 8.83933 6.39107 8.753 6.67107 8.641C6.95574 8.529 7.23807 8.40533 7.51807 8.27C7.80274 8.13467 8.06174 7.99933 8.29507 7.864C8.53307 7.724 8.7174 7.60033 8.84807 7.493L9.88407 7.64L9.87707 18H7.67207ZM12.1286 15.942L11.6246 15.109C11.8112 14.717 11.9886 14.3367 12.1566 13.968C12.3246 13.5947 12.4879 13.2307 12.6466 12.876C12.8099 12.5167 12.9686 12.162 13.1226 11.812C13.2766 11.462 13.4306 11.112 13.5846 10.762C13.7386 10.412 13.8949 10.0597 14.0536 9.705C14.2169 9.35033 14.3826 8.98633 14.5506 8.613C14.7186 8.23967 14.8936 7.85933 15.0756 7.472H15.7616L17.1896 8.27C17.0216 8.58267 16.8629 8.879 16.7136 9.159C16.5689 9.439 16.4289 9.712 16.2936 9.978C16.1582 10.2393 16.0252 10.5007 15.8946 10.762C15.7639 11.0187 15.6286 11.2777 15.4886 11.539C15.3532 11.8003 15.2109 12.0733 15.0616 12.358C14.9169 12.638 14.7606 12.932 14.5926 13.24L13.9066 14.388H20.2346V15.942H12.1286ZM16.6366 18V14.346L16.8466 11.392H18.6946V18H16.6366Z" fill="#D60000"/>
</svg>
