<svg width="35" height="25" viewBox="0 0 35 25" fill="none" xmlns="http://www.w3.org/2000/svg">
<path d="M24.2362 13.124L32.9217 24H1V1H32.9217L24.2362 11.876L23.7379 12.5L24.2362 13.124Z" stroke="#D60000" stroke-width="2"/>
<path d="M8.67109 18V9.866C8.40509 9.93133 8.14376 9.98967 7.88709 10.041C7.63043 10.0923 7.37143 10.1413 7.11009 10.188L6.91409 8.9C7.13809 8.83933 7.39009 8.753 7.67009 8.641C7.95476 8.529 8.23709 8.40533 8.51709 8.27C8.80176 8.13467 9.06076 7.99933 9.29409 7.864C9.53209 7.724 9.71643 7.60033 9.84709 7.493L10.8831 7.64L10.8761 18H8.67109ZM14.2056 18.14C14.0889 18.14 13.9349 18.133 13.7436 18.119C13.5569 18.105 13.3936 18.0817 13.2536 18.049V16.537C13.3422 16.5417 13.4286 16.5463 13.5126 16.551C13.6012 16.551 13.6852 16.551 13.7646 16.551C14.5486 16.551 15.2276 16.4623 15.8016 16.285C16.3802 16.1077 16.8259 15.8557 17.1386 15.529C17.4512 15.2023 17.6076 14.815 17.6076 14.367C17.6076 13.8397 17.4536 13.4523 17.1456 13.205C16.8422 12.9577 16.3499 12.834 15.6686 12.834C15.3746 12.834 15.0572 12.8737 14.7166 12.953C14.3806 13.0323 14.0516 13.128 13.7296 13.24L13.3306 13.016L13.7436 7.598H19.4976L19.3016 9.369H15.3046L15.0666 11.539C15.3606 11.455 15.6476 11.392 15.9276 11.35C16.2076 11.308 16.4736 11.287 16.7256 11.287C17.7289 11.287 18.4896 11.5507 19.0076 12.078C19.5302 12.6007 19.7916 13.331 19.7916 14.269C19.7916 14.8197 19.6656 15.3307 19.4136 15.802C19.1616 16.2687 18.7952 16.677 18.3146 17.027C17.8339 17.377 17.2482 17.65 16.5576 17.846C15.8669 18.042 15.0829 18.14 14.2056 18.14Z" fill="#D60000"/>
</svg>
