<svg width="35" height="25" viewBox="0 0 35 25" fill="none" xmlns="http://www.w3.org/2000/svg">
<path d="M24.2362 13.124L32.9217 24H1V1H32.9217L24.2362 11.876L23.7379 12.5L24.2362 13.124Z" stroke="#D60000" stroke-width="2"/>
<path d="M7.67207 18V9.866C7.40607 9.93133 7.14474 9.98967 6.88807 10.041C6.6314 10.0923 6.3724 10.1413 6.11107 10.188L5.91507 8.9C6.13907 8.83933 6.39107 8.753 6.67107 8.641C6.95574 8.529 7.23807 8.40533 7.51807 8.27C7.80274 8.13467 8.06174 7.99933 8.29507 7.864C8.53307 7.724 8.7174 7.60033 8.84807 7.493L9.88407 7.64L9.87707 18H7.67207ZM11.9606 13.891C11.9606 13.093 12.0819 12.3533 12.3246 11.672C12.5719 10.9907 12.9032 10.3747 13.3186 9.824C13.7339 9.26867 14.2006 8.788 14.7186 8.382C15.2366 7.976 15.7686 7.64933 16.3146 7.402C16.8652 7.15467 17.3926 6.99133 17.8966 6.912L18.4076 8.207C17.7636 8.37033 17.1849 8.63167 16.6716 8.991C16.1582 9.34567 15.7219 9.761 15.3626 10.237C15.0079 10.713 14.7349 11.2193 14.5436 11.756C14.3522 12.2927 14.2519 12.8223 14.2426 13.345C14.2332 13.961 14.2822 14.5187 14.3896 15.018C14.4969 15.5127 14.6812 15.907 14.9426 16.201C15.2086 16.4903 15.5702 16.635 16.0276 16.635C16.4056 16.635 16.7182 16.5487 16.9656 16.376C17.2129 16.1987 17.3996 15.956 17.5256 15.648C17.6516 15.34 17.7146 14.9923 17.7146 14.605C17.7146 14.115 17.6516 13.7277 17.5256 13.443C17.3996 13.1537 17.2362 12.9507 17.0356 12.834C16.8349 12.7127 16.6179 12.652 16.3846 12.652C16.1326 12.652 15.9226 12.6823 15.7546 12.743C15.5912 12.8037 15.4582 12.8597 15.3556 12.911L14.9146 11.749C14.9939 11.6603 15.1269 11.56 15.3136 11.448C15.5002 11.336 15.7336 11.2403 16.0136 11.161C16.2936 11.077 16.6156 11.035 16.9796 11.035C17.5629 11.035 18.0692 11.175 18.4986 11.455C18.9279 11.7303 19.2592 12.106 19.4926 12.582C19.7259 13.058 19.8426 13.5923 19.8426 14.185C19.8426 14.7077 19.7609 15.2047 19.5976 15.676C19.4342 16.1473 19.1846 16.5673 18.8486 16.936C18.5172 17.3 18.0996 17.587 17.5956 17.797C17.0916 18.007 16.4989 18.112 15.8176 18.112C15.0476 18.112 14.3732 17.9253 13.7946 17.552C13.2159 17.1787 12.7656 16.6723 12.4436 16.033C12.1216 15.3937 11.9606 14.6797 11.9606 13.891Z" fill="#D60000"/>
</svg>
