<svg width="35" height="25" viewBox="0 0 35 25" fill="none" xmlns="http://www.w3.org/2000/svg">
<path d="M24.2362 13.124L32.9217 24H1V1H32.9217L24.2362 11.876L23.7379 12.5L24.2362 13.124Z" stroke="#D60000" stroke-width="2"/>
<path d="M8.64375 18V9.866C8.37775 9.93133 8.11642 9.98967 7.85975 10.041C7.60308 10.0923 7.34408 10.1413 7.08275 10.188L6.88675 8.9C7.11075 8.83933 7.36275 8.753 7.64275 8.641C7.92742 8.529 8.20975 8.40533 8.48975 8.27C8.77442 8.13467 9.03342 7.99933 9.26675 7.864C9.50475 7.724 9.68908 7.60033 9.81975 7.493L10.8557 7.64L10.8488 18H8.64375ZM14.1712 18C14.3579 17.608 14.5562 17.1763 14.7662 16.705C14.9762 16.2337 15.1932 15.739 15.4172 15.221C15.6412 14.6983 15.8629 14.1733 16.0822 13.646C16.3062 13.1187 16.5209 12.603 16.7262 12.099C16.9316 11.595 17.1229 11.1237 17.3002 10.685C17.4776 10.2417 17.6316 9.852 17.7622 9.516L12.9112 9.502L12.9182 7.598H19.6942L20.1632 8.256L16.5722 18H14.1712Z" fill="#D60000"/>
</svg>
