<svg width="35" height="25" viewBox="0 0 35 25" fill="none" xmlns="http://www.w3.org/2000/svg">
<path d="M24.2362 13.124L32.9217 24H1V1H32.9217L24.2362 11.876L23.7379 12.5L24.2362 13.124Z" stroke="#D60000" stroke-width="2"/>
<path d="M7.86348 18V9.866C7.59748 9.93133 7.33614 9.98967 7.07948 10.041C6.82281 10.0923 6.56381 10.1413 6.30248 10.188L6.10648 8.9C6.33048 8.83933 6.58248 8.753 6.86248 8.641C7.14714 8.529 7.42948 8.40533 7.70948 8.27C7.99414 8.13467 8.25314 7.99933 8.48648 7.864C8.72448 7.724 8.90881 7.60033 9.03948 7.493L10.0755 7.64L10.0685 18H7.86348ZM15.995 18.112C15.435 18.112 14.917 18.0537 14.441 17.937C13.9696 17.8157 13.559 17.6407 13.209 17.412C12.859 17.1787 12.5883 16.8893 12.397 16.544C12.2056 16.1987 12.11 15.7997 12.11 15.347C12.11 14.983 12.1986 14.6213 12.376 14.262C12.5533 13.898 12.845 13.5573 13.251 13.24C13.657 12.9227 14.1983 12.652 14.875 12.428L15.743 13.303C15.4303 13.429 15.1526 13.5853 14.91 13.772C14.6673 13.954 14.476 14.1663 14.336 14.409C14.196 14.6517 14.126 14.927 14.126 15.235C14.126 15.515 14.189 15.774 14.315 16.012C14.4456 16.2453 14.6486 16.432 14.924 16.572C15.204 16.712 15.561 16.782 15.995 16.782C16.275 16.782 16.5363 16.726 16.779 16.614C17.0216 16.4973 17.2176 16.3363 17.367 16.131C17.5163 15.9257 17.591 15.6877 17.591 15.417C17.591 15.1277 17.4976 14.878 17.311 14.668C17.129 14.4533 16.884 14.2597 16.576 14.087C16.2726 13.9097 15.939 13.7347 15.575 13.562C15.211 13.3893 14.8446 13.205 14.476 13.009C14.112 12.8083 13.776 12.5773 13.468 12.316C13.1646 12.05 12.9196 11.7373 12.733 11.378C12.551 11.0187 12.46 10.594 12.46 10.104C12.46 9.57667 12.6023 9.11233 12.887 8.711C13.1716 8.30967 13.573 7.997 14.091 7.773C14.609 7.549 15.2203 7.437 15.925 7.437C16.6343 7.437 17.2386 7.542 17.738 7.752C18.242 7.95733 18.627 8.24433 18.893 8.613C19.159 8.98167 19.292 9.404 19.292 9.88C19.292 10.258 19.2056 10.636 19.033 11.014C18.865 11.392 18.5943 11.735 18.221 12.043C17.8523 12.351 17.3693 12.5913 16.772 12.764L15.932 11.91C16.4453 11.7513 16.814 11.4993 17.038 11.154C17.2666 10.8087 17.3833 10.4283 17.388 10.013C17.3973 9.65367 17.2736 9.355 17.017 9.117C16.7603 8.879 16.3963 8.76 15.925 8.76C15.491 8.76 15.134 8.87433 14.854 9.103C14.5786 9.327 14.441 9.607 14.441 9.943C14.441 10.251 14.5366 10.5263 14.728 10.769C14.9193 11.007 15.1713 11.2263 15.484 11.427C15.7966 11.6277 16.1396 11.8237 16.513 12.015C16.8863 12.2017 17.262 12.3953 17.64 12.596C18.018 12.7967 18.3633 13.0207 18.676 13.268C18.9933 13.5107 19.2476 13.7883 19.439 14.101C19.635 14.4137 19.7353 14.7753 19.74 15.186C19.7446 15.8207 19.579 16.355 19.243 16.789C18.9116 17.223 18.4636 17.552 17.899 17.776C17.3343 18 16.6996 18.112 15.995 18.112Z" fill="#D60000"/>
</svg>
