<svg width="35" height="25" viewBox="0 0 35 25" fill="none" xmlns="http://www.w3.org/2000/svg">
<path d="M24.2362 13.124L32.9217 24H1V1H32.9217L24.2362 11.876L23.7379 12.5L24.2362 13.124Z" stroke="#D60000" stroke-width="2"/>
<path d="M7.64473 18V9.866C7.37873 9.93133 7.11739 9.98967 6.86073 10.041C6.60406 10.0923 6.34506 10.1413 6.08373 10.188L5.88773 8.9C6.11173 8.83933 6.36373 8.753 6.64373 8.641C6.92839 8.529 7.21073 8.40533 7.49073 8.27C7.77539 8.13467 8.03439 7.99933 8.26773 7.864C8.50573 7.724 8.69006 7.60033 8.82073 7.493L9.85673 7.64L9.84973 18H7.64473ZM11.9892 11.301C11.9892 10.559 12.1432 9.89867 12.4512 9.32C12.7639 8.74133 13.2212 8.28633 13.8232 7.955C14.4252 7.62367 15.1672 7.458 16.0492 7.458C16.8379 7.458 17.5145 7.64233 18.0792 8.011C18.6485 8.37967 19.0849 8.88133 19.3882 9.516C19.6915 10.1507 19.8432 10.8693 19.8432 11.672C19.8432 12.4933 19.7172 13.2587 19.4652 13.968C19.2132 14.6727 18.8725 15.312 18.4432 15.886C18.0139 16.4553 17.5332 16.9523 17.0012 17.377C16.4739 17.8017 15.9302 18.1423 15.3702 18.399C14.8149 18.6603 14.2829 18.8307 13.7742 18.91L13.2072 17.664C13.8885 17.496 14.4975 17.2183 15.0342 16.831C15.5755 16.439 16.0329 15.9863 16.4062 15.473C16.7842 14.955 17.0712 14.4183 17.2672 13.863C17.4679 13.303 17.5729 12.7687 17.5822 12.26C17.5915 11.6113 17.5379 11.0373 17.4212 10.538C17.3092 10.0387 17.1202 9.649 16.8542 9.369C16.5882 9.08433 16.2312 8.942 15.7832 8.942C15.4379 8.942 15.1415 9.02367 14.8942 9.187C14.6469 9.35033 14.4555 9.572 14.3202 9.852C14.1849 10.132 14.1172 10.4493 14.1172 10.804C14.1172 11.5553 14.2525 12.1083 14.5232 12.463C14.7939 12.813 15.1275 12.988 15.5242 12.988C15.8089 12.988 16.0189 12.9647 16.1542 12.918C16.2942 12.8713 16.4202 12.8247 16.5322 12.778L16.9452 13.926C16.8379 14.052 16.6092 14.1943 16.2592 14.353C15.9139 14.5117 15.4542 14.591 14.8802 14.591C14.2922 14.591 13.7812 14.444 13.3472 14.15C12.9179 13.8513 12.5842 13.4523 12.3462 12.953C12.1082 12.4537 11.9892 11.903 11.9892 11.301Z" fill="#D60000"/>
</svg>
