<svg width="35" height="25" viewBox="0 0 35 25" fill="none" xmlns="http://www.w3.org/2000/svg">
<path d="M24.2362 13.124L32.9217 24H1V1H32.9217L24.2362 11.876L23.7379 12.5L24.2362 13.124Z" stroke="#D60000" stroke-width="2"/>
<path d="M10.1519 18L9.85087 17.041C10.2289 16.803 10.6302 16.516 11.0549 16.18C11.4842 15.844 11.9042 15.473 12.3149 15.067C12.7255 14.661 13.0989 14.2317 13.4349 13.779C13.7709 13.3217 14.0392 12.855 14.2399 12.379C14.4405 11.8983 14.5409 11.42 14.5409 10.944C14.5409 10.3793 14.3985 9.95233 14.1139 9.663C13.8339 9.369 13.4442 9.222 12.9449 9.222C12.4875 9.222 12.0512 9.30367 11.6359 9.467C11.2205 9.63033 10.8915 9.83333 10.6489 10.076L9.89987 8.879C10.0865 8.68767 10.3362 8.487 10.6489 8.277C10.9662 8.06233 11.3512 7.88033 11.8039 7.731C12.2612 7.58167 12.7909 7.507 13.3929 7.507C14.2002 7.507 14.8489 7.65633 15.3389 7.955C15.8335 8.25367 16.1905 8.65033 16.4099 9.145C16.6339 9.63967 16.7459 10.1787 16.7459 10.762C16.7459 11.462 16.5732 12.1503 16.2279 12.827C15.8872 13.499 15.4159 14.1407 14.8139 14.752C14.2165 15.3633 13.5352 15.9303 12.7699 16.453L17.1239 16.264V18H10.1519Z" fill="#D60000"/>
</svg>
