<svg width="35" height="25" viewBox="0 0 35 25" fill="none" xmlns="http://www.w3.org/2000/svg">
<path d="M24.2362 13.124L32.9217 24H1V1H32.9217L24.2362 11.876L23.7379 12.5L24.2362 13.124Z" stroke="#D60000" stroke-width="2"/>
<path d="M5.13468 18L4.83368 17.041C5.21168 16.803 5.61301 16.516 6.03768 16.18C6.46701 15.844 6.88701 15.473 7.29768 15.067C7.70835 14.661 8.08168 14.2317 8.41768 13.779C8.75368 13.3217 9.02201 12.855 9.22268 12.379C9.42335 11.8983 9.52368 11.42 9.52368 10.944C9.52368 10.3793 9.38135 9.95233 9.09668 9.663C8.81668 9.369 8.42701 9.222 7.92768 9.222C7.47035 9.222 7.03401 9.30367 6.61868 9.467C6.20335 9.63033 5.87435 9.83333 5.63168 10.076L4.88268 8.879C5.06935 8.68767 5.31901 8.487 5.63168 8.277C5.94901 8.06233 6.33401 7.88033 6.78668 7.731C7.24401 7.58167 7.77368 7.507 8.37568 7.507C9.18301 7.507 9.83168 7.65633 10.3217 7.955C10.8163 8.25367 11.1733 8.65033 11.3927 9.145C11.6167 9.63967 11.7287 10.1787 11.7287 10.762C11.7287 11.462 11.556 12.1503 11.2107 12.827C10.87 13.499 10.3987 14.1407 9.79668 14.752C9.19935 15.3633 8.51801 15.9303 7.75268 16.453L12.1067 16.264V18H5.13468ZM16.8779 18.112C16.1499 18.112 15.5269 17.9627 15.0089 17.664C14.4956 17.3653 14.0756 16.9593 13.7489 16.446C13.4269 15.928 13.1913 15.3423 13.0419 14.689C12.8926 14.031 12.8203 13.345 12.8249 12.631C12.8389 11.581 13.0326 10.671 13.4059 9.901C13.7839 9.12633 14.2879 8.529 14.9179 8.109C15.5479 7.689 16.2573 7.479 17.0459 7.479C17.7833 7.479 18.4063 7.619 18.9149 7.899C19.4283 8.17433 19.8413 8.55467 20.1539 9.04C20.4713 9.52533 20.6999 10.0853 20.8399 10.72C20.9799 11.35 21.0476 12.0197 21.0429 12.729C21.0336 13.8117 20.8493 14.7567 20.4899 15.564C20.1353 16.3667 19.6453 16.992 19.0199 17.44C18.3946 17.888 17.6806 18.112 16.8779 18.112ZM16.9339 16.474C17.5359 16.4787 17.9933 16.1823 18.3059 15.585C18.6233 14.9877 18.7819 14.059 18.7819 12.799C18.7819 12.0523 18.7166 11.4037 18.5859 10.853C18.4553 10.3023 18.2546 9.87533 17.9839 9.572C17.7133 9.26867 17.3726 9.117 16.9619 9.117C16.3599 9.117 15.8979 9.40633 15.5759 9.985C15.2586 10.5637 15.0999 11.427 15.0999 12.575C15.0999 13.317 15.1653 13.982 15.2959 14.57C15.4313 15.1533 15.6343 15.6153 15.9049 15.956C16.1756 16.2967 16.5186 16.4693 16.9339 16.474Z" fill="#D60000"/>
</svg>
