<svg width="35" height="25" viewBox="0 0 35 25" fill="none" xmlns="http://www.w3.org/2000/svg">
<path d="M24.2362 13.124L32.9217 24H1V1H32.9217L24.2362 11.876L23.7379 12.5L24.2362 13.124Z" stroke="#D60000" stroke-width="2"/>
<path d="M7.24112 18L6.94012 17.041C7.31812 16.803 7.71946 16.516 8.14412 16.18C8.57346 15.844 8.99346 15.473 9.40413 15.067C9.81479 14.661 10.1881 14.2317 10.5241 13.779C10.8601 13.3217 11.1285 12.855 11.3291 12.379C11.5298 11.8983 11.6301 11.42 11.6301 10.944C11.6301 10.3793 11.4878 9.95233 11.2031 9.663C10.9231 9.369 10.5335 9.222 10.0341 9.222C9.57679 9.222 9.14046 9.30367 8.72513 9.467C8.30979 9.63033 7.98079 9.83333 7.73812 10.076L6.98912 8.879C7.17579 8.68767 7.42546 8.487 7.73812 8.277C8.05546 8.06233 8.44046 7.88033 8.89312 7.731C9.35046 7.58167 9.88013 7.507 10.4821 7.507C11.2895 7.507 11.9381 7.65633 12.4281 7.955C12.9228 8.25367 13.2798 8.65033 13.4991 9.145C13.7231 9.63967 13.8351 10.1787 13.8351 10.762C13.8351 11.462 13.6625 12.1503 13.3171 12.827C12.9765 13.499 12.5051 14.1407 11.9031 14.752C11.3058 15.3633 10.6245 15.9303 9.85913 16.453L14.2131 16.264V18H7.24112ZM16.6254 18V9.866C16.3594 9.93133 16.0981 9.98967 15.8414 10.041C15.5847 10.0923 15.3257 10.1413 15.0644 10.188L14.8684 8.9C15.0924 8.83933 15.3444 8.753 15.6244 8.641C15.9091 8.529 16.1914 8.40533 16.4714 8.27C16.7561 8.13467 17.0151 7.99933 17.2484 7.864C17.4864 7.724 17.6707 7.60033 17.8014 7.493L18.8374 7.64L18.8304 18H16.6254Z" fill="#D60000"/>
</svg>
