<svg width="35" height="25" viewBox="0 0 35 25" fill="none" xmlns="http://www.w3.org/2000/svg">
<path d="M24.2362 13.124L32.9217 24H1V1H32.9217L24.2362 11.876L23.7379 12.5L24.2362 13.124Z" stroke="#D60000" stroke-width="2"/>
<path d="M6.21573 18L5.91473 17.041C6.29273 16.803 6.69407 16.516 7.11873 16.18C7.54807 15.844 7.96807 15.473 8.37873 15.067C8.7894 14.661 9.16273 14.2317 9.49874 13.779C9.83473 13.3217 10.1031 12.855 10.3037 12.379C10.5044 11.8983 10.6047 11.42 10.6047 10.944C10.6047 10.3793 10.4624 9.95233 10.1777 9.663C9.89774 9.369 9.50807 9.222 9.00874 9.222C8.5514 9.222 8.11507 9.30367 7.69973 9.467C7.2844 9.63033 6.9554 9.83333 6.71273 10.076L5.96373 8.879C6.1504 8.68767 6.40007 8.487 6.71273 8.277C7.03007 8.06233 7.41507 7.88033 7.86773 7.731C8.32507 7.58167 8.85473 7.507 9.45673 7.507C10.2641 7.507 10.9127 7.65633 11.4027 7.955C11.8974 8.25367 12.2544 8.65033 12.4737 9.145C12.6977 9.63967 12.8097 10.1787 12.8097 10.762C12.8097 11.462 12.6371 12.1503 12.2917 12.827C11.9511 13.499 11.4797 14.1407 10.8777 14.752C10.2804 15.3633 9.59907 15.9303 8.83373 16.453L13.1877 16.264V18H6.21573ZM14.088 18L13.787 17.041C14.165 16.803 14.5663 16.516 14.991 16.18C15.4203 15.844 15.8403 15.473 16.251 15.067C16.6617 14.661 17.035 14.2317 17.371 13.779C17.707 13.3217 17.9753 12.855 18.176 12.379C18.3767 11.8983 18.477 11.42 18.477 10.944C18.477 10.3793 18.3347 9.95233 18.05 9.663C17.77 9.369 17.3803 9.222 16.881 9.222C16.4237 9.222 15.9873 9.30367 15.572 9.467C15.1567 9.63033 14.8277 9.83333 14.585 10.076L13.836 8.879C14.0227 8.68767 14.2723 8.487 14.585 8.277C14.9023 8.06233 15.2873 7.88033 15.74 7.731C16.1973 7.58167 16.727 7.507 17.329 7.507C18.1363 7.507 18.785 7.65633 19.275 7.955C19.7697 8.25367 20.1267 8.65033 20.346 9.145C20.57 9.63967 20.682 10.1787 20.682 10.762C20.682 11.462 20.5093 12.1503 20.164 12.827C19.8233 13.499 19.352 14.1407 18.75 14.752C18.1527 15.3633 17.4713 15.9303 16.706 16.453L21.06 16.264V18H14.088Z" fill="#D60000"/>
</svg>
