<svg width="35" height="25" viewBox="0 0 35 25" fill="none" xmlns="http://www.w3.org/2000/svg">
<path d="M24.2362 13.124L32.9217 24H1V1H32.9217L24.2362 11.876L23.7379 12.5L24.2362 13.124Z" stroke="#D60000" stroke-width="2"/>
<path d="M5.9755 18L5.6745 17.041C6.0525 16.803 6.45383 16.516 6.8785 16.18C7.30783 15.844 7.72783 15.473 8.1385 15.067C8.54917 14.661 8.9225 14.2317 9.2585 13.779C9.5945 13.3217 9.86283 12.855 10.0635 12.379C10.2642 11.8983 10.3645 11.42 10.3645 10.944C10.3645 10.3793 10.2222 9.95233 9.9375 9.663C9.6575 9.369 9.26783 9.222 8.7685 9.222C8.31117 9.222 7.87483 9.30367 7.4595 9.467C7.04417 9.63033 6.71517 9.83333 6.4725 10.076L5.7235 8.879C5.91017 8.68767 6.15983 8.487 6.4725 8.277C6.78983 8.06233 7.17483 7.88033 7.6275 7.731C8.08483 7.58167 8.6145 7.507 9.2165 7.507C10.0238 7.507 10.6725 7.65633 11.1625 7.955C11.6572 8.25367 12.0142 8.65033 12.2335 9.145C12.4575 9.63967 12.5695 10.1787 12.5695 10.762C12.5695 11.462 12.3968 12.1503 12.0515 12.827C11.7108 13.499 11.2395 14.1407 10.6375 14.752C10.0402 15.3633 9.35883 15.9303 8.5935 16.453L12.9475 16.264V18H5.9755ZM13.8338 17.867L13.8198 16.453C14.0438 16.4997 14.2771 16.5417 14.5198 16.579C14.7624 16.6117 14.9864 16.628 15.1918 16.628C15.7564 16.628 16.2558 16.5557 16.6898 16.411C17.1238 16.2663 17.4621 16.061 17.7048 15.795C17.9474 15.5243 18.0688 15.2093 18.0688 14.85C18.0688 14.5747 18.0058 14.3227 17.8798 14.094C17.7538 13.8607 17.5484 13.6787 17.2638 13.548C16.9791 13.4173 16.5988 13.366 16.1228 13.394L15.3038 13.583L14.9818 12.218C15.2618 12.1667 15.5278 12.1037 15.7798 12.029C16.0318 11.9497 16.2534 11.861 16.4448 11.763C16.8228 11.581 17.1074 11.364 17.2988 11.112C17.4948 10.8553 17.5974 10.5753 17.6068 10.272C17.6254 9.87533 17.5041 9.58133 17.2428 9.39C16.9814 9.19867 16.6431 9.103 16.2278 9.103C15.7518 9.103 15.3434 9.18 15.0028 9.334C14.6668 9.48333 14.3774 9.64433 14.1348 9.817L13.4628 8.508C13.6121 8.368 13.8501 8.21633 14.1768 8.053C14.5034 7.88967 14.8791 7.752 15.3038 7.64C15.7284 7.52333 16.1601 7.465 16.5988 7.465C17.2381 7.465 17.7958 7.56067 18.2718 7.752C18.7478 7.94333 19.1164 8.221 19.3778 8.585C19.6438 8.94433 19.7768 9.383 19.7768 9.901C19.7768 10.3583 19.6788 10.769 19.4828 11.133C19.2868 11.4923 19.0208 11.8027 18.6848 12.064C18.3488 12.3253 17.9731 12.54 17.5578 12.708V12.484C18.1971 12.4933 18.7198 12.6193 19.1258 12.862C19.5364 13.1 19.8398 13.408 20.0358 13.786C20.2318 14.1593 20.3298 14.5537 20.3298 14.969C20.3298 15.5337 20.1384 16.0587 19.7558 16.544C19.3778 17.0247 18.8411 17.412 18.1458 17.706C17.4551 18 16.6408 18.147 15.7028 18.147C15.3201 18.147 14.9724 18.1143 14.6598 18.049C14.3471 17.9883 14.0718 17.9277 13.8338 17.867Z" fill="#D60000"/>
</svg>
