<svg width="35" height="25" viewBox="0 0 35 25" fill="none" xmlns="http://www.w3.org/2000/svg">
<path d="M24.2362 13.124L32.9217 24H1V1H32.9217L24.2362 11.876L23.7379 12.5L24.2362 13.124Z" stroke="#D60000" stroke-width="2"/>
<path d="M5.13468 18L4.83368 17.041C5.21168 16.803 5.61301 16.516 6.03768 16.18C6.46701 15.844 6.88701 15.473 7.29768 15.067C7.70835 14.661 8.08168 14.2317 8.41768 13.779C8.75368 13.3217 9.02201 12.855 9.22268 12.379C9.42335 11.8983 9.52368 11.42 9.52368 10.944C9.52368 10.3793 9.38135 9.95233 9.09668 9.663C8.81668 9.369 8.42701 9.222 7.92768 9.222C7.47035 9.222 7.03401 9.30367 6.61868 9.467C6.20335 9.63033 5.87435 9.83333 5.63168 10.076L4.88268 8.879C5.06935 8.68767 5.31901 8.487 5.63168 8.277C5.94901 8.06233 6.33401 7.88033 6.78668 7.731C7.24401 7.58167 7.77368 7.507 8.37568 7.507C9.18301 7.507 9.83168 7.65633 10.3217 7.955C10.8163 8.25367 11.1733 8.65033 11.3927 9.145C11.6167 9.63967 11.7287 10.1787 11.7287 10.762C11.7287 11.462 11.556 12.1503 11.2107 12.827C10.87 13.499 10.3987 14.1407 9.79668 14.752C9.19935 15.3633 8.51801 15.9303 7.75268 16.453L12.1067 16.264V18H5.13468ZM13.1539 15.942L12.6499 15.109C12.8366 14.717 13.0139 14.3367 13.1819 13.968C13.3499 13.5947 13.5133 13.2307 13.6719 12.876C13.8353 12.5167 13.9939 12.162 14.1479 11.812C14.3019 11.462 14.4559 11.112 14.6099 10.762C14.7639 10.412 14.9203 10.0597 15.0789 9.705C15.2423 9.35033 15.4079 8.98633 15.5759 8.613C15.7439 8.23967 15.9189 7.85933 16.1009 7.472H16.7869L18.2149 8.27C18.0469 8.58267 17.8883 8.879 17.7389 9.159C17.5943 9.439 17.4543 9.712 17.3189 9.978C17.1836 10.2393 17.0506 10.5007 16.9199 10.762C16.7893 11.0187 16.6539 11.2777 16.5139 11.539C16.3786 11.8003 16.2363 12.0733 16.0869 12.358C15.9423 12.638 15.7859 12.932 15.6179 13.24L14.9319 14.388H21.2599V15.942H13.1539ZM17.6619 18V14.346L17.8719 11.392H19.7199V18H17.6619Z" fill="#D60000"/>
</svg>
