<svg width="35" height="25" viewBox="0 0 35 25" fill="none" xmlns="http://www.w3.org/2000/svg">
<path d="M24.2362 13.124L32.9217 24H1V1H32.9217L24.2362 11.876L23.7379 12.5L24.2362 13.124Z" stroke="#D60000" stroke-width="2"/>
<path d="M6.1337 18L5.8327 17.041C6.2107 16.803 6.61204 16.516 7.0367 16.18C7.46604 15.844 7.88604 15.473 8.2967 15.067C8.70737 14.661 9.0807 14.2317 9.4167 13.779C9.7527 13.3217 10.021 12.855 10.2217 12.379C10.4224 11.8983 10.5227 11.42 10.5227 10.944C10.5227 10.3793 10.3804 9.95233 10.0957 9.663C9.8157 9.369 9.42604 9.222 8.9267 9.222C8.46937 9.222 8.03304 9.30367 7.6177 9.467C7.20237 9.63033 6.87337 9.83333 6.6307 10.076L5.8817 8.879C6.06837 8.68767 6.31804 8.487 6.6307 8.277C6.94804 8.06233 7.33304 7.88033 7.7857 7.731C8.24304 7.58167 8.7727 7.507 9.3747 7.507C10.182 7.507 10.8307 7.65633 11.3207 7.955C11.8154 8.25367 12.1724 8.65033 12.3917 9.145C12.6157 9.63967 12.7277 10.1787 12.7277 10.762C12.7277 11.462 12.555 12.1503 12.2097 12.827C11.869 13.499 11.3977 14.1407 10.7957 14.752C10.1984 15.3633 9.51704 15.9303 8.7517 16.453L13.1057 16.264V18H6.1337ZM15.231 18.14C15.1143 18.14 14.9603 18.133 14.769 18.119C14.5823 18.105 14.419 18.0817 14.279 18.049V16.537C14.3676 16.5417 14.454 16.5463 14.538 16.551C14.6266 16.551 14.7106 16.551 14.79 16.551C15.574 16.551 16.253 16.4623 16.827 16.285C17.4056 16.1077 17.8513 15.8557 18.164 15.529C18.4766 15.2023 18.633 14.815 18.633 14.367C18.633 13.8397 18.479 13.4523 18.171 13.205C17.8676 12.9577 17.3753 12.834 16.694 12.834C16.4 12.834 16.0826 12.8737 15.742 12.953C15.406 13.0323 15.077 13.128 14.755 13.24L14.356 13.016L14.769 7.598H20.523L20.327 9.369H16.33L16.092 11.539C16.386 11.455 16.673 11.392 16.953 11.35C17.233 11.308 17.499 11.287 17.751 11.287C18.7543 11.287 19.515 11.5507 20.033 12.078C20.5556 12.6007 20.817 13.331 20.817 14.269C20.817 14.8197 20.691 15.3307 20.439 15.802C20.187 16.2687 19.8206 16.677 19.34 17.027C18.8593 17.377 18.2736 17.65 17.583 17.846C16.8923 18.042 16.1083 18.14 15.231 18.14Z" fill="#D60000"/>
</svg>
