<svg width="35" height="25" viewBox="0 0 35 25" fill="none" xmlns="http://www.w3.org/2000/svg">
<path d="M24.2362 13.124L32.9217 24H1V1H32.9217L24.2362 11.876L23.7379 12.5L24.2362 13.124Z" stroke="#D60000" stroke-width="2"/>
<path d="M5.13468 18L4.83368 17.041C5.21168 16.803 5.61301 16.516 6.03768 16.18C6.46701 15.844 6.88701 15.473 7.29768 15.067C7.70835 14.661 8.08168 14.2317 8.41768 13.779C8.75368 13.3217 9.02201 12.855 9.22268 12.379C9.42335 11.8983 9.52368 11.42 9.52368 10.944C9.52368 10.3793 9.38135 9.95233 9.09668 9.663C8.81668 9.369 8.42701 9.222 7.92768 9.222C7.47035 9.222 7.03401 9.30367 6.61868 9.467C6.20335 9.63033 5.87435 9.83333 5.63168 10.076L4.88268 8.879C5.06935 8.68767 5.31901 8.487 5.63168 8.277C5.94901 8.06233 6.33401 7.88033 6.78668 7.731C7.24401 7.58167 7.77368 7.507 8.37568 7.507C9.18301 7.507 9.83168 7.65633 10.3217 7.955C10.8163 8.25367 11.1733 8.65033 11.3927 9.145C11.6167 9.63967 11.7287 10.1787 11.7287 10.762C11.7287 11.462 11.556 12.1503 11.2107 12.827C10.87 13.499 10.3987 14.1407 9.79668 14.752C9.19935 15.3633 8.51801 15.9303 7.75268 16.453L12.1067 16.264V18H5.13468ZM12.9859 13.891C12.9859 13.093 13.1073 12.3533 13.3499 11.672C13.5973 10.9907 13.9286 10.3747 14.3439 9.824C14.7593 9.26867 15.2259 8.788 15.7439 8.382C16.2619 7.976 16.7939 7.64933 17.3399 7.402C17.8906 7.15467 18.4179 6.99133 18.9219 6.912L19.4329 8.207C18.7889 8.37033 18.2103 8.63167 17.6969 8.991C17.1836 9.34567 16.7473 9.761 16.3879 10.237C16.0333 10.713 15.7603 11.2193 15.5689 11.756C15.3776 12.2927 15.2773 12.8223 15.2679 13.345C15.2586 13.961 15.3076 14.5187 15.4149 15.018C15.5223 15.5127 15.7066 15.907 15.9679 16.201C16.2339 16.4903 16.5956 16.635 17.0529 16.635C17.4309 16.635 17.7436 16.5487 17.9909 16.376C18.2383 16.1987 18.4249 15.956 18.5509 15.648C18.6769 15.34 18.7399 14.9923 18.7399 14.605C18.7399 14.115 18.6769 13.7277 18.5509 13.443C18.4249 13.1537 18.2616 12.9507 18.0609 12.834C17.8603 12.7127 17.6433 12.652 17.4099 12.652C17.1579 12.652 16.9479 12.6823 16.7799 12.743C16.6166 12.8037 16.4836 12.8597 16.3809 12.911L15.9399 11.749C16.0193 11.6603 16.1523 11.56 16.3389 11.448C16.5256 11.336 16.7589 11.2403 17.0389 11.161C17.3189 11.077 17.6409 11.035 18.0049 11.035C18.5883 11.035 19.0946 11.175 19.5239 11.455C19.9533 11.7303 20.2846 12.106 20.5179 12.582C20.7513 13.058 20.8679 13.5923 20.8679 14.185C20.8679 14.7077 20.7863 15.2047 20.6229 15.676C20.4596 16.1473 20.2099 16.5673 19.8739 16.936C19.5426 17.3 19.1249 17.587 18.6209 17.797C18.1169 18.007 17.5243 18.112 16.8429 18.112C16.0729 18.112 15.3986 17.9253 14.8199 17.552C14.2413 17.1787 13.7909 16.6723 13.4689 16.033C13.1469 15.3937 12.9859 14.6797 12.9859 13.891Z" fill="#D60000"/>
</svg>
