<svg width="35" height="25" viewBox="0 0 35 25" fill="none" xmlns="http://www.w3.org/2000/svg">
<path d="M24.2362 13.124L32.9217 24H1V1H32.9217L24.2362 11.876L23.7379 12.5L24.2362 13.124Z" stroke="#D60000" stroke-width="2"/>
<path d="M6.10636 18L5.80536 17.041C6.18336 16.803 6.58469 16.516 7.00936 16.18C7.43869 15.844 7.85869 15.473 8.26936 15.067C8.68003 14.661 9.05336 14.2317 9.38936 13.779C9.72536 13.3217 9.99369 12.855 10.1944 12.379C10.395 11.8983 10.4954 11.42 10.4954 10.944C10.4954 10.3793 10.353 9.95233 10.0684 9.663C9.78836 9.369 9.39869 9.222 8.89936 9.222C8.44203 9.222 8.00569 9.30367 7.59036 9.467C7.17503 9.63033 6.84603 9.83333 6.60336 10.076L5.85436 8.879C6.04103 8.68767 6.29069 8.487 6.60336 8.277C6.92069 8.06233 7.30569 7.88033 7.75836 7.731C8.21569 7.58167 8.74536 7.507 9.34736 7.507C10.1547 7.507 10.8034 7.65633 11.2934 7.955C11.788 8.25367 12.145 8.65033 12.3644 9.145C12.5884 9.63967 12.7004 10.1787 12.7004 10.762C12.7004 11.462 12.5277 12.1503 12.1824 12.827C11.8417 13.499 11.3704 14.1407 10.7684 14.752C10.171 15.3633 9.48969 15.9303 8.72436 16.453L13.0784 16.264V18H6.10636ZM15.1966 18C15.3833 17.608 15.5816 17.1763 15.7916 16.705C16.0016 16.2337 16.2186 15.739 16.4426 15.221C16.6666 14.6983 16.8883 14.1733 17.1076 13.646C17.3316 13.1187 17.5463 12.603 17.7516 12.099C17.957 11.595 18.1483 11.1237 18.3256 10.685C18.503 10.2417 18.657 9.852 18.7876 9.516L13.9366 9.502L13.9436 7.598H20.7196L21.1886 8.256L17.5976 18H15.1966Z" fill="#D60000"/>
</svg>
