<svg width="35" height="25" viewBox="0 0 35 25" fill="none" xmlns="http://www.w3.org/2000/svg">
<path d="M24.2362 13.124L32.9217 24H1V1H32.9217L24.2362 11.876L23.7379 12.5L24.2362 13.124Z" stroke="#D60000" stroke-width="2"/>
<path d="M5.32609 18L5.02509 17.041C5.40309 16.803 5.80442 16.516 6.22909 16.18C6.65842 15.844 7.07842 15.473 7.48909 15.067C7.89975 14.661 8.27309 14.2317 8.60909 13.779C8.94509 13.3217 9.21342 12.855 9.41409 12.379C9.61475 11.8983 9.71509 11.42 9.71509 10.944C9.71509 10.3793 9.57275 9.95233 9.28809 9.663C9.00809 9.369 8.61842 9.222 8.11909 9.222C7.66175 9.222 7.22542 9.30367 6.81009 9.467C6.39475 9.63033 6.06575 9.83333 5.82309 10.076L5.07409 8.879C5.26075 8.68767 5.51042 8.487 5.82309 8.277C6.14042 8.06233 6.52542 7.88033 6.97809 7.731C7.43542 7.58167 7.96509 7.507 8.56709 7.507C9.37442 7.507 10.0231 7.65633 10.5131 7.955C11.0078 8.25367 11.3648 8.65033 11.5841 9.145C11.8081 9.63967 11.9201 10.1787 11.9201 10.762C11.9201 11.462 11.7474 12.1503 11.4021 12.827C11.0614 13.499 10.5901 14.1407 9.98809 14.752C9.39075 15.3633 8.70942 15.9303 7.94409 16.453L12.2981 16.264V18H5.32609ZM17.0204 18.112C16.4604 18.112 15.9424 18.0537 15.4664 17.937C14.995 17.8157 14.5844 17.6407 14.2344 17.412C13.8844 17.1787 13.6137 16.8893 13.4224 16.544C13.231 16.1987 13.1354 15.7997 13.1354 15.347C13.1354 14.983 13.224 14.6213 13.4014 14.262C13.5787 13.898 13.8704 13.5573 14.2764 13.24C14.6824 12.9227 15.2237 12.652 15.9004 12.428L16.7684 13.303C16.4557 13.429 16.178 13.5853 15.9354 13.772C15.6927 13.954 15.5014 14.1663 15.3614 14.409C15.2214 14.6517 15.1514 14.927 15.1514 15.235C15.1514 15.515 15.2144 15.774 15.3404 16.012C15.471 16.2453 15.674 16.432 15.9494 16.572C16.2294 16.712 16.5864 16.782 17.0204 16.782C17.3004 16.782 17.5617 16.726 17.8044 16.614C18.047 16.4973 18.243 16.3363 18.3924 16.131C18.5417 15.9257 18.6164 15.6877 18.6164 15.417C18.6164 15.1277 18.523 14.878 18.3364 14.668C18.1544 14.4533 17.9094 14.2597 17.6014 14.087C17.298 13.9097 16.9644 13.7347 16.6004 13.562C16.2364 13.3893 15.87 13.205 15.5014 13.009C15.1374 12.8083 14.8014 12.5773 14.4934 12.316C14.19 12.05 13.945 11.7373 13.7584 11.378C13.5764 11.0187 13.4854 10.594 13.4854 10.104C13.4854 9.57667 13.6277 9.11233 13.9124 8.711C14.197 8.30967 14.5984 7.997 15.1164 7.773C15.6344 7.549 16.2457 7.437 16.9504 7.437C17.6597 7.437 18.264 7.542 18.7634 7.752C19.2674 7.95733 19.6524 8.24433 19.9184 8.613C20.1844 8.98167 20.3174 9.404 20.3174 9.88C20.3174 10.258 20.231 10.636 20.0584 11.014C19.8904 11.392 19.6197 11.735 19.2464 12.043C18.8777 12.351 18.3947 12.5913 17.7974 12.764L16.9574 11.91C17.4707 11.7513 17.8394 11.4993 18.0634 11.154C18.292 10.8087 18.4087 10.4283 18.4134 10.013C18.4227 9.65367 18.299 9.355 18.0424 9.117C17.7857 8.879 17.4217 8.76 16.9504 8.76C16.5164 8.76 16.1594 8.87433 15.8794 9.103C15.604 9.327 15.4664 9.607 15.4664 9.943C15.4664 10.251 15.562 10.5263 15.7534 10.769C15.9447 11.007 16.1967 11.2263 16.5094 11.427C16.822 11.6277 17.165 11.8237 17.5384 12.015C17.9117 12.2017 18.2874 12.3953 18.6654 12.596C19.0434 12.7967 19.3887 13.0207 19.7014 13.268C20.0187 13.5107 20.273 13.7883 20.4644 14.101C20.6604 14.4137 20.7607 14.7753 20.7654 15.186C20.77 15.8207 20.6044 16.355 20.2684 16.789C19.937 17.223 19.489 17.552 18.9244 17.776C18.3597 18 17.725 18.112 17.0204 18.112Z" fill="#D60000"/>
</svg>
