<svg width="35" height="25" viewBox="0 0 35 25" fill="none" xmlns="http://www.w3.org/2000/svg">
<path d="M24.2362 13.124L32.9217 24H1V1H32.9217L24.2362 11.876L23.7379 12.5L24.2362 13.124Z" stroke="#D60000" stroke-width="2"/>
<path d="M5.10734 18L4.80634 17.041C5.18434 16.803 5.58567 16.516 6.01034 16.18C6.43967 15.844 6.85967 15.473 7.27034 15.067C7.681 14.661 8.05434 14.2317 8.39034 13.779C8.72634 13.3217 8.99467 12.855 9.19534 12.379C9.396 11.8983 9.49634 11.42 9.49634 10.944C9.49634 10.3793 9.354 9.95233 9.06934 9.663C8.78934 9.369 8.39967 9.222 7.90034 9.222C7.443 9.222 7.00667 9.30367 6.59134 9.467C6.176 9.63033 5.847 9.83333 5.60434 10.076L4.85534 8.879C5.042 8.68767 5.29167 8.487 5.60434 8.277C5.92167 8.06233 6.30667 7.88033 6.75934 7.731C7.21667 7.58167 7.74634 7.507 8.34834 7.507C9.15567 7.507 9.80434 7.65633 10.2943 7.955C10.789 8.25367 11.146 8.65033 11.3653 9.145C11.5893 9.63967 11.7013 10.1787 11.7013 10.762C11.7013 11.462 11.5287 12.1503 11.1833 12.827C10.8427 13.499 10.3713 14.1407 9.76934 14.752C9.172 15.3633 8.49067 15.9303 7.72534 16.453L12.0793 16.264V18H5.10734ZM13.0146 11.301C13.0146 10.559 13.1686 9.89867 13.4766 9.32C13.7893 8.74133 14.2466 8.28633 14.8486 7.955C15.4506 7.62367 16.1926 7.458 17.0746 7.458C17.8633 7.458 18.5399 7.64233 19.1046 8.011C19.6739 8.37967 20.1103 8.88133 20.4136 9.516C20.7169 10.1507 20.8686 10.8693 20.8686 11.672C20.8686 12.4933 20.7426 13.2587 20.4906 13.968C20.2386 14.6727 19.8979 15.312 19.4686 15.886C19.0393 16.4553 18.5586 16.9523 18.0266 17.377C17.4993 17.8017 16.9556 18.1423 16.3956 18.399C15.8403 18.6603 15.3083 18.8307 14.7996 18.91L14.2326 17.664C14.9139 17.496 15.5229 17.2183 16.0596 16.831C16.6009 16.439 17.0583 15.9863 17.4316 15.473C17.8096 14.955 18.0966 14.4183 18.2926 13.863C18.4933 13.303 18.5983 12.7687 18.6076 12.26C18.6169 11.6113 18.5633 11.0373 18.4466 10.538C18.3346 10.0387 18.1456 9.649 17.8796 9.369C17.6136 9.08433 17.2566 8.942 16.8086 8.942C16.4633 8.942 16.1669 9.02367 15.9196 9.187C15.6723 9.35033 15.4809 9.572 15.3456 9.852C15.2103 10.132 15.1426 10.4493 15.1426 10.804C15.1426 11.5553 15.2779 12.1083 15.5486 12.463C15.8193 12.813 16.1529 12.988 16.5496 12.988C16.8343 12.988 17.0443 12.9647 17.1796 12.918C17.3196 12.8713 17.4456 12.8247 17.5576 12.778L17.9706 13.926C17.8633 14.052 17.6346 14.1943 17.2846 14.353C16.9393 14.5117 16.4796 14.591 15.9056 14.591C15.3176 14.591 14.8066 14.444 14.3726 14.15C13.9433 13.8513 13.6096 13.4523 13.3716 12.953C13.1336 12.4537 13.0146 11.903 13.0146 11.301Z" fill="#D60000"/>
</svg>
