<svg width="35" height="25" viewBox="0 0 35 25" fill="none" xmlns="http://www.w3.org/2000/svg">
<path d="M24.2362 13.124L32.9217 24H1V1H32.9217L24.2362 11.876L23.7379 12.5L24.2362 13.124Z" stroke="#D60000" stroke-width="2"/>
<path d="M10.3976 17.867L10.3836 16.453C10.6076 16.4997 10.841 16.5417 11.0836 16.579C11.3263 16.6117 11.5503 16.628 11.7556 16.628C12.3203 16.628 12.8196 16.5557 13.2536 16.411C13.6876 16.2663 14.026 16.061 14.2686 15.795C14.5113 15.5243 14.6326 15.2093 14.6326 14.85C14.6326 14.5747 14.5696 14.3227 14.4436 14.094C14.3176 13.8607 14.1123 13.6787 13.8276 13.548C13.543 13.4173 13.1626 13.366 12.6866 13.394L11.8676 13.583L11.5456 12.218C11.8256 12.1667 12.0916 12.1037 12.3436 12.029C12.5956 11.9497 12.8173 11.861 13.0086 11.763C13.3866 11.581 13.6713 11.364 13.8626 11.112C14.0586 10.8553 14.1613 10.5753 14.1706 10.272C14.1893 9.87533 14.068 9.58133 13.8066 9.39C13.5453 9.19867 13.207 9.103 12.7916 9.103C12.3156 9.103 11.9073 9.18 11.5666 9.334C11.2306 9.48333 10.9413 9.64433 10.6986 9.817L10.0266 8.508C10.176 8.368 10.414 8.21633 10.7406 8.053C11.0673 7.88967 11.443 7.752 11.8676 7.64C12.2923 7.52333 12.724 7.465 13.1626 7.465C13.802 7.465 14.3596 7.56067 14.8356 7.752C15.3116 7.94333 15.6803 8.221 15.9416 8.585C16.2076 8.94433 16.3406 9.383 16.3406 9.901C16.3406 10.3583 16.2426 10.769 16.0466 11.133C15.8506 11.4923 15.5846 11.8027 15.2486 12.064C14.9126 12.3253 14.537 12.54 14.1216 12.708V12.484C14.761 12.4933 15.2836 12.6193 15.6896 12.862C16.1003 13.1 16.4036 13.408 16.5996 13.786C16.7956 14.1593 16.8936 14.5537 16.8936 14.969C16.8936 15.5337 16.7023 16.0587 16.3196 16.544C15.9416 17.0247 15.405 17.412 14.7096 17.706C14.019 18 13.2046 18.147 12.2666 18.147C11.884 18.147 11.5363 18.1143 11.2236 18.049C10.911 17.9883 10.6356 17.9277 10.3976 17.867Z" fill="#D60000"/>
</svg>
