<svg width="35" height="25" viewBox="0 0 35 25" fill="none" xmlns="http://www.w3.org/2000/svg">
<path d="M24.2362 13.124L32.9217 24H1V1H32.9217L24.2362 11.876L23.7379 12.5L24.2362 13.124Z" stroke="#D60000" stroke-width="2"/>
<path d="M5.38045 17.867L5.36645 16.453C5.59045 16.4997 5.82378 16.5417 6.06645 16.579C6.30911 16.6117 6.53311 16.628 6.73845 16.628C7.30311 16.628 7.80245 16.5557 8.23645 16.411C8.67045 16.2663 9.00878 16.061 9.25145 15.795C9.49411 15.5243 9.61545 15.2093 9.61545 14.85C9.61545 14.5747 9.55245 14.3227 9.42645 14.094C9.30045 13.8607 9.09511 13.6787 8.81045 13.548C8.52578 13.4173 8.14545 13.366 7.66945 13.394L6.85045 13.583L6.52845 12.218C6.80845 12.1667 7.07445 12.1037 7.32645 12.029C7.57845 11.9497 7.80011 11.861 7.99145 11.763C8.36945 11.581 8.65411 11.364 8.84545 11.112C9.04145 10.8553 9.14411 10.5753 9.15345 10.272C9.17211 9.87533 9.05078 9.58133 8.78945 9.39C8.52811 9.19867 8.18978 9.103 7.77445 9.103C7.29845 9.103 6.89011 9.18 6.54945 9.334C6.21345 9.48333 5.92411 9.64433 5.68145 9.817L5.00945 8.508C5.15878 8.368 5.39678 8.21633 5.72345 8.053C6.05011 7.88967 6.42578 7.752 6.85045 7.64C7.27511 7.52333 7.70678 7.465 8.14545 7.465C8.78478 7.465 9.34245 7.56067 9.81845 7.752C10.2944 7.94333 10.6631 8.221 10.9244 8.585C11.1904 8.94433 11.3234 9.383 11.3234 9.901C11.3234 10.3583 11.2254 10.769 11.0294 11.133C10.8334 11.4923 10.5674 11.8027 10.2314 12.064C9.89545 12.3253 9.51978 12.54 9.10445 12.708V12.484C9.74378 12.4933 10.2664 12.6193 10.6724 12.862C11.0831 13.1 11.3864 13.408 11.5824 13.786C11.7784 14.1593 11.8764 14.5537 11.8764 14.969C11.8764 15.5337 11.6851 16.0587 11.3024 16.544C10.9244 17.0247 10.3878 17.412 9.69245 17.706C9.00178 18 8.18745 18.147 7.24945 18.147C6.86678 18.147 6.51911 18.1143 6.20645 18.049C5.89378 17.9883 5.61845 17.9277 5.38045 17.867ZM16.6182 18.112C15.8902 18.112 15.2672 17.9627 14.7492 17.664C14.2358 17.3653 13.8158 16.9593 13.4892 16.446C13.1672 15.928 12.9315 15.3423 12.7822 14.689C12.6328 14.031 12.5605 13.345 12.5652 12.631C12.5792 11.581 12.7728 10.671 13.1462 9.901C13.5242 9.12633 14.0282 8.529 14.6582 8.109C15.2882 7.689 15.9975 7.479 16.7862 7.479C17.5235 7.479 18.1465 7.619 18.6552 7.899C19.1685 8.17433 19.5815 8.55467 19.8942 9.04C20.2115 9.52533 20.4402 10.0853 20.5802 10.72C20.7202 11.35 20.7878 12.0197 20.7832 12.729C20.7738 13.8117 20.5895 14.7567 20.2302 15.564C19.8755 16.3667 19.3855 16.992 18.7602 17.44C18.1348 17.888 17.4208 18.112 16.6182 18.112ZM16.6742 16.474C17.2762 16.4787 17.7335 16.1823 18.0462 15.585C18.3635 14.9877 18.5222 14.059 18.5222 12.799C18.5222 12.0523 18.4568 11.4037 18.3262 10.853C18.1955 10.3023 17.9948 9.87533 17.7242 9.572C17.4535 9.26867 17.1128 9.117 16.7022 9.117C16.1002 9.117 15.6382 9.40633 15.3162 9.985C14.9988 10.5637 14.8402 11.427 14.8402 12.575C14.8402 13.317 14.9055 13.982 15.0362 14.57C15.1715 15.1533 15.3745 15.6153 15.6452 15.956C15.9158 16.2967 16.2588 16.4693 16.6742 16.474Z" fill="#D60000"/>
</svg>
