<svg width="35" height="25" viewBox="0 0 35 25" fill="none" xmlns="http://www.w3.org/2000/svg">
<path d="M24.2362 13.124L32.9217 24H1V1H32.9217L24.2362 11.876L23.7379 12.5L24.2362 13.124Z" stroke="#D60000" stroke-width="2"/>
<path d="M6.98689 17.867L6.97289 16.453C7.19689 16.4997 7.43022 16.5417 7.67289 16.579C7.91556 16.6117 8.13956 16.628 8.34489 16.628C8.90956 16.628 9.40889 16.5557 9.84289 16.411C10.2769 16.2663 10.6152 16.061 10.8579 15.795C11.1006 15.5243 11.2219 15.2093 11.2219 14.85C11.2219 14.5747 11.1589 14.3227 11.0329 14.094C10.9069 13.8607 10.7016 13.6787 10.4169 13.548C10.1322 13.4173 9.75189 13.366 9.27589 13.394L8.45689 13.583L8.13489 12.218C8.41489 12.1667 8.68089 12.1037 8.93289 12.029C9.18489 11.9497 9.40656 11.861 9.59789 11.763C9.97589 11.581 10.2606 11.364 10.4519 11.112C10.6479 10.8553 10.7506 10.5753 10.7599 10.272C10.7786 9.87533 10.6572 9.58133 10.3959 9.39C10.1346 9.19867 9.79622 9.103 9.38089 9.103C8.90489 9.103 8.49656 9.18 8.15589 9.334C7.81989 9.48333 7.53056 9.64433 7.28789 9.817L6.61589 8.508C6.76522 8.368 7.00322 8.21633 7.32989 8.053C7.65656 7.88967 8.03222 7.752 8.45689 7.64C8.88156 7.52333 9.31322 7.465 9.75189 7.465C10.3912 7.465 10.9489 7.56067 11.4249 7.752C11.9009 7.94333 12.2696 8.221 12.5309 8.585C12.7969 8.94433 12.9299 9.383 12.9299 9.901C12.9299 10.3583 12.8319 10.769 12.6359 11.133C12.4399 11.4923 12.1739 11.8027 11.8379 12.064C11.5019 12.3253 11.1262 12.54 10.7109 12.708V12.484C11.3502 12.4933 11.8729 12.6193 12.2789 12.862C12.6896 13.1 12.9929 13.408 13.1889 13.786C13.3849 14.1593 13.4829 14.5537 13.4829 14.969C13.4829 15.5337 13.2916 16.0587 12.9089 16.544C12.5309 17.0247 11.9942 17.412 11.2989 17.706C10.6082 18 9.79389 18.147 8.85589 18.147C8.47322 18.147 8.12556 18.1143 7.81289 18.049C7.50022 17.9883 7.22489 17.9277 6.98689 17.867ZM15.8656 18V9.866C15.5996 9.93133 15.3383 9.98967 15.0816 10.041C14.825 10.0923 14.566 10.1413 14.3046 10.188L14.1086 8.9C14.3326 8.83933 14.5846 8.753 14.8646 8.641C15.1493 8.529 15.4316 8.40533 15.7116 8.27C15.9963 8.13467 16.2553 7.99933 16.4886 7.864C16.7266 7.724 16.911 7.60033 17.0416 7.493L18.0776 7.64L18.0706 18H15.8656Z" fill="#D60000"/>
</svg>
