<svg width="35" height="25" viewBox="0 0 35 25" fill="none" xmlns="http://www.w3.org/2000/svg">
<path d="M24.2362 13.124L32.9217 24H1V1H32.9217L24.2362 11.876L23.7379 12.5L24.2362 13.124Z" stroke="#D60000" stroke-width="2"/>
<path d="M5.9615 17.867L5.9475 16.453C6.1715 16.4997 6.40483 16.5417 6.6475 16.579C6.89017 16.6117 7.11417 16.628 7.3195 16.628C7.88417 16.628 8.3835 16.5557 8.8175 16.411C9.2515 16.2663 9.58983 16.061 9.8325 15.795C10.0752 15.5243 10.1965 15.2093 10.1965 14.85C10.1965 14.5747 10.1335 14.3227 10.0075 14.094C9.8815 13.8607 9.67617 13.6787 9.3915 13.548C9.10683 13.4173 8.7265 13.366 8.2505 13.394L7.4315 13.583L7.1095 12.218C7.3895 12.1667 7.6555 12.1037 7.9075 12.029C8.1595 11.9497 8.38117 11.861 8.5725 11.763C8.9505 11.581 9.23517 11.364 9.4265 11.112C9.6225 10.8553 9.72517 10.5753 9.7345 10.272C9.75317 9.87533 9.63183 9.58133 9.3705 9.39C9.10917 9.19867 8.77083 9.103 8.3555 9.103C7.8795 9.103 7.47117 9.18 7.1305 9.334C6.7945 9.48333 6.50517 9.64433 6.2625 9.817L5.5905 8.508C5.73983 8.368 5.97783 8.21633 6.3045 8.053C6.63117 7.88967 7.00683 7.752 7.4315 7.64C7.85617 7.52333 8.28783 7.465 8.7265 7.465C9.36583 7.465 9.9235 7.56067 10.3995 7.752C10.8755 7.94333 11.2442 8.221 11.5055 8.585C11.7715 8.94433 11.9045 9.383 11.9045 9.901C11.9045 10.3583 11.8065 10.769 11.6105 11.133C11.4145 11.4923 11.1485 11.8027 10.8125 12.064C10.4765 12.3253 10.1008 12.54 9.6855 12.708V12.484C10.3248 12.4933 10.8475 12.6193 11.2535 12.862C11.6642 13.1 11.9675 13.408 12.1635 13.786C12.3595 14.1593 12.4575 14.5537 12.4575 14.969C12.4575 15.5337 12.2662 16.0587 11.8835 16.544C11.5055 17.0247 10.9688 17.412 10.2735 17.706C9.58283 18 8.7685 18.147 7.8305 18.147C7.44783 18.147 7.10017 18.1143 6.7875 18.049C6.47483 17.9883 6.1995 17.9277 5.9615 17.867ZM13.3282 18L13.0272 17.041C13.4052 16.803 13.8066 16.516 14.2312 16.18C14.6606 15.844 15.0806 15.473 15.4912 15.067C15.9019 14.661 16.2752 14.2317 16.6112 13.779C16.9472 13.3217 17.2156 12.855 17.4162 12.379C17.6169 11.8983 17.7172 11.42 17.7172 10.944C17.7172 10.3793 17.5749 9.95233 17.2902 9.663C17.0102 9.369 16.6206 9.222 16.1212 9.222C15.6639 9.222 15.2276 9.30367 14.8122 9.467C14.3969 9.63033 14.0679 9.83333 13.8252 10.076L13.0762 8.879C13.2629 8.68767 13.5126 8.487 13.8252 8.277C14.1426 8.06233 14.5276 7.88033 14.9802 7.731C15.4376 7.58167 15.9672 7.507 16.5692 7.507C17.3766 7.507 18.0252 7.65633 18.5152 7.955C19.0099 8.25367 19.3669 8.65033 19.5862 9.145C19.8102 9.63967 19.9222 10.1787 19.9222 10.762C19.9222 11.462 19.7496 12.1503 19.4042 12.827C19.0636 13.499 18.5922 14.1407 17.9902 14.752C17.3929 15.3633 16.7116 15.9303 15.9462 16.453L20.3002 16.264V18H13.3282Z" fill="#D60000"/>
</svg>
