<svg width="35" height="25" viewBox="0 0 35 25" fill="none" xmlns="http://www.w3.org/2000/svg">
<path d="M24.2362 13.124L32.9217 24H1V1H32.9217L24.2362 11.876L23.7379 12.5L24.2362 13.124Z" stroke="#D60000" stroke-width="2"/>
<path d="M6.22127 17.867L6.20727 16.453C6.43127 16.4997 6.6646 16.5417 6.90727 16.579C7.14993 16.6117 7.37393 16.628 7.57927 16.628C8.14393 16.628 8.64327 16.5557 9.07727 16.411C9.51127 16.2663 9.8496 16.061 10.0923 15.795C10.3349 15.5243 10.4563 15.2093 10.4563 14.85C10.4563 14.5747 10.3933 14.3227 10.2673 14.094C10.1413 13.8607 9.93593 13.6787 9.65127 13.548C9.3666 13.4173 8.98627 13.366 8.51027 13.394L7.69127 13.583L7.36927 12.218C7.64927 12.1667 7.91527 12.1037 8.16727 12.029C8.41927 11.9497 8.64093 11.861 8.83227 11.763C9.21027 11.581 9.49493 11.364 9.68627 11.112C9.88227 10.8553 9.98493 10.5753 9.99427 10.272C10.0129 9.87533 9.8916 9.58133 9.63027 9.39C9.36893 9.19867 9.0306 9.103 8.61527 9.103C8.13927 9.103 7.73093 9.18 7.39027 9.334C7.05427 9.48333 6.76493 9.64433 6.52227 9.817L5.85027 8.508C5.9996 8.368 6.2376 8.21633 6.56427 8.053C6.89093 7.88967 7.2666 7.752 7.69127 7.64C8.11593 7.52333 8.5476 7.465 8.98627 7.465C9.6256 7.465 10.1833 7.56067 10.6593 7.752C11.1353 7.94333 11.5039 8.221 11.7653 8.585C12.0313 8.94433 12.1643 9.383 12.1643 9.901C12.1643 10.3583 12.0663 10.769 11.8703 11.133C11.6743 11.4923 11.4083 11.8027 11.0723 12.064C10.7363 12.3253 10.3606 12.54 9.94527 12.708V12.484C10.5846 12.4933 11.1073 12.6193 11.5133 12.862C11.9239 13.1 12.2273 13.408 12.4233 13.786C12.6193 14.1593 12.7173 14.5537 12.7173 14.969C12.7173 15.5337 12.5259 16.0587 12.1433 16.544C11.7653 17.0247 11.2286 17.412 10.5333 17.706C9.8426 18 9.02827 18.147 8.09027 18.147C7.7076 18.147 7.35993 18.1143 7.04727 18.049C6.7346 17.9883 6.45927 17.9277 6.22127 17.867ZM13.574 17.867L13.56 16.453C13.784 16.4997 14.0173 16.5417 14.26 16.579C14.5027 16.6117 14.7267 16.628 14.932 16.628C15.4967 16.628 15.996 16.5557 16.43 16.411C16.864 16.2663 17.2023 16.061 17.445 15.795C17.6877 15.5243 17.809 15.2093 17.809 14.85C17.809 14.5747 17.746 14.3227 17.62 14.094C17.494 13.8607 17.2887 13.6787 17.004 13.548C16.7193 13.4173 16.339 13.366 15.863 13.394L15.044 13.583L14.722 12.218C15.002 12.1667 15.268 12.1037 15.52 12.029C15.772 11.9497 15.9937 11.861 16.185 11.763C16.563 11.581 16.8477 11.364 17.039 11.112C17.235 10.8553 17.3377 10.5753 17.347 10.272C17.3657 9.87533 17.2443 9.58133 16.983 9.39C16.7217 9.19867 16.3833 9.103 15.968 9.103C15.492 9.103 15.0837 9.18 14.743 9.334C14.407 9.48333 14.1177 9.64433 13.875 9.817L13.203 8.508C13.3523 8.368 13.5903 8.21633 13.917 8.053C14.2437 7.88967 14.6193 7.752 15.044 7.64C15.4687 7.52333 15.9003 7.465 16.339 7.465C16.9783 7.465 17.536 7.56067 18.012 7.752C18.488 7.94333 18.8567 8.221 19.118 8.585C19.384 8.94433 19.517 9.383 19.517 9.901C19.517 10.3583 19.419 10.769 19.223 11.133C19.027 11.4923 18.761 11.8027 18.425 12.064C18.089 12.3253 17.7133 12.54 17.298 12.708V12.484C17.9373 12.4933 18.46 12.6193 18.866 12.862C19.2767 13.1 19.58 13.408 19.776 13.786C19.972 14.1593 20.07 14.5537 20.07 14.969C20.07 15.5337 19.8787 16.0587 19.496 16.544C19.118 17.0247 18.5813 17.412 17.886 17.706C17.1953 18 16.381 18.147 15.443 18.147C15.0603 18.147 14.7127 18.1143 14.4 18.049C14.0873 17.9883 13.812 17.9277 13.574 17.867Z" fill="#D60000"/>
</svg>
