<svg width="35" height="25" viewBox="0 0 35 25" fill="none" xmlns="http://www.w3.org/2000/svg">
<path d="M24.2362 13.124L32.9217 24H1V1H32.9217L24.2362 11.876L23.7379 12.5L24.2362 13.124Z" stroke="#D60000" stroke-width="2"/>
<path d="M6.37947 17.867L6.36547 16.453C6.58947 16.4997 6.8228 16.5417 7.06547 16.579C7.30814 16.6117 7.53214 16.628 7.73747 16.628C8.30214 16.628 8.80147 16.5557 9.23547 16.411C9.66947 16.2663 10.0078 16.061 10.2505 15.795C10.4931 15.5243 10.6145 15.2093 10.6145 14.85C10.6145 14.5747 10.5515 14.3227 10.4255 14.094C10.2995 13.8607 10.0941 13.6787 9.80947 13.548C9.5248 13.4173 9.14447 13.366 8.66847 13.394L7.84947 13.583L7.52747 12.218C7.80747 12.1667 8.07347 12.1037 8.32547 12.029C8.57747 11.9497 8.79914 11.861 8.99047 11.763C9.36847 11.581 9.65314 11.364 9.84447 11.112C10.0405 10.8553 10.1431 10.5753 10.1525 10.272C10.1711 9.87533 10.0498 9.58133 9.78847 9.39C9.52714 9.19867 9.1888 9.103 8.77347 9.103C8.29747 9.103 7.88914 9.18 7.54847 9.334C7.21247 9.48333 6.92314 9.64433 6.68047 9.817L6.00847 8.508C6.1578 8.368 6.3958 8.21633 6.72247 8.053C7.04914 7.88967 7.4248 7.752 7.84947 7.64C8.27414 7.52333 8.7058 7.465 9.14447 7.465C9.7838 7.465 10.3415 7.56067 10.8175 7.752C11.2935 7.94333 11.6621 8.221 11.9235 8.585C12.1895 8.94433 12.3225 9.383 12.3225 9.901C12.3225 10.3583 12.2245 10.769 12.0285 11.133C11.8325 11.4923 11.5665 11.8027 11.2305 12.064C10.8945 12.3253 10.5188 12.54 10.1035 12.708V12.484C10.7428 12.4933 11.2655 12.6193 11.6715 12.862C12.0821 13.1 12.3855 13.408 12.5815 13.786C12.7775 14.1593 12.8755 14.5537 12.8755 14.969C12.8755 15.5337 12.6841 16.0587 12.3015 16.544C11.9235 17.0247 11.3868 17.412 10.6915 17.706C10.0008 18 9.18647 18.147 8.24847 18.147C7.8658 18.147 7.51814 18.1143 7.20547 18.049C6.8928 17.9883 6.61747 17.9277 6.37947 17.867ZM14.9712 18.14C14.8545 18.14 14.7005 18.133 14.5092 18.119C14.3225 18.105 14.1592 18.0817 14.0192 18.049V16.537C14.1079 16.5417 14.1942 16.5463 14.2782 16.551C14.3669 16.551 14.4509 16.551 14.5302 16.551C15.3142 16.551 15.9932 16.4623 16.5672 16.285C17.1459 16.1077 17.5915 15.8557 17.9042 15.529C18.2169 15.2023 18.3732 14.815 18.3732 14.367C18.3732 13.8397 18.2192 13.4523 17.9112 13.205C17.6079 12.9577 17.1155 12.834 16.4342 12.834C16.1402 12.834 15.8229 12.8737 15.4822 12.953C15.1462 13.0323 14.8172 13.128 14.4952 13.24L14.0962 13.016L14.5092 7.598H20.2632L20.0672 9.369H16.0702L15.8322 11.539C16.1262 11.455 16.4132 11.392 16.6932 11.35C16.9732 11.308 17.2392 11.287 17.4912 11.287C18.4945 11.287 19.2552 11.5507 19.7732 12.078C20.2959 12.6007 20.5572 13.331 20.5572 14.269C20.5572 14.8197 20.4312 15.3307 20.1792 15.802C19.9272 16.2687 19.5609 16.677 19.0802 17.027C18.5995 17.377 18.0139 17.65 17.3232 17.846C16.6325 18.042 15.8485 18.14 14.9712 18.14Z" fill="#D60000"/>
</svg>
