<svg width="35" height="25" viewBox="0 0 35 25" fill="none" xmlns="http://www.w3.org/2000/svg">
<path d="M24.2362 13.124L32.9217 24H1V1H32.9217L24.2362 11.876L23.7379 12.5L24.2362 13.124Z" stroke="#D60000" stroke-width="2"/>
<path d="M5.38045 17.867L5.36645 16.453C5.59045 16.4997 5.82378 16.5417 6.06645 16.579C6.30911 16.6117 6.53311 16.628 6.73845 16.628C7.30311 16.628 7.80245 16.5557 8.23645 16.411C8.67045 16.2663 9.00878 16.061 9.25145 15.795C9.49411 15.5243 9.61545 15.2093 9.61545 14.85C9.61545 14.5747 9.55245 14.3227 9.42645 14.094C9.30045 13.8607 9.09511 13.6787 8.81045 13.548C8.52578 13.4173 8.14545 13.366 7.66945 13.394L6.85045 13.583L6.52845 12.218C6.80845 12.1667 7.07445 12.1037 7.32645 12.029C7.57845 11.9497 7.80011 11.861 7.99145 11.763C8.36945 11.581 8.65411 11.364 8.84545 11.112C9.04145 10.8553 9.14411 10.5753 9.15345 10.272C9.17211 9.87533 9.05078 9.58133 8.78945 9.39C8.52811 9.19867 8.18978 9.103 7.77445 9.103C7.29845 9.103 6.89011 9.18 6.54945 9.334C6.21345 9.48333 5.92411 9.64433 5.68145 9.817L5.00945 8.508C5.15878 8.368 5.39678 8.21633 5.72345 8.053C6.05011 7.88967 6.42578 7.752 6.85045 7.64C7.27511 7.52333 7.70678 7.465 8.14545 7.465C8.78478 7.465 9.34245 7.56067 9.81845 7.752C10.2944 7.94333 10.6631 8.221 10.9244 8.585C11.1904 8.94433 11.3234 9.383 11.3234 9.901C11.3234 10.3583 11.2254 10.769 11.0294 11.133C10.8334 11.4923 10.5674 11.8027 10.2314 12.064C9.89545 12.3253 9.51978 12.54 9.10445 12.708V12.484C9.74378 12.4933 10.2664 12.6193 10.6724 12.862C11.0831 13.1 11.3864 13.408 11.5824 13.786C11.7784 14.1593 11.8764 14.5537 11.8764 14.969C11.8764 15.5337 11.6851 16.0587 11.3024 16.544C10.9244 17.0247 10.3878 17.412 9.69245 17.706C9.00178 18 8.18745 18.147 7.24945 18.147C6.86678 18.147 6.51911 18.1143 6.20645 18.049C5.89378 17.9883 5.61845 17.9277 5.38045 17.867ZM12.7262 13.891C12.7262 13.093 12.8475 12.3533 13.0902 11.672C13.3375 10.9907 13.6688 10.3747 14.0842 9.824C14.4995 9.26867 14.9662 8.788 15.4842 8.382C16.0022 7.976 16.5342 7.64933 17.0802 7.402C17.6308 7.15467 18.1582 6.99133 18.6622 6.912L19.1732 8.207C18.5292 8.37033 17.9505 8.63167 17.4372 8.991C16.9238 9.34567 16.4875 9.761 16.1282 10.237C15.7735 10.713 15.5005 11.2193 15.3092 11.756C15.1178 12.2927 15.0175 12.8223 15.0082 13.345C14.9988 13.961 15.0478 14.5187 15.1552 15.018C15.2625 15.5127 15.4468 15.907 15.7082 16.201C15.9742 16.4903 16.3358 16.635 16.7932 16.635C17.1712 16.635 17.4838 16.5487 17.7312 16.376C17.9785 16.1987 18.1652 15.956 18.2912 15.648C18.4172 15.34 18.4802 14.9923 18.4802 14.605C18.4802 14.115 18.4172 13.7277 18.2912 13.443C18.1652 13.1537 18.0018 12.9507 17.8012 12.834C17.6005 12.7127 17.3835 12.652 17.1502 12.652C16.8982 12.652 16.6882 12.6823 16.5202 12.743C16.3568 12.8037 16.2238 12.8597 16.1212 12.911L15.6802 11.749C15.7595 11.6603 15.8925 11.56 16.0792 11.448C16.2658 11.336 16.4992 11.2403 16.7792 11.161C17.0592 11.077 17.3812 11.035 17.7452 11.035C18.3285 11.035 18.8348 11.175 19.2642 11.455C19.6935 11.7303 20.0248 12.106 20.2582 12.582C20.4915 13.058 20.6082 13.5923 20.6082 14.185C20.6082 14.7077 20.5265 15.2047 20.3632 15.676C20.1998 16.1473 19.9502 16.5673 19.6142 16.936C19.2828 17.3 18.8652 17.587 18.3612 17.797C17.8572 18.007 17.2645 18.112 16.5832 18.112C15.8132 18.112 15.1388 17.9253 14.5602 17.552C13.9815 17.1787 13.5312 16.6723 13.2092 16.033C12.8872 15.3937 12.7262 14.6797 12.7262 13.891Z" fill="#D60000"/>
</svg>
