<svg width="35" height="25" viewBox="0 0 35 25" fill="none" xmlns="http://www.w3.org/2000/svg">
<path d="M24.2362 13.124L32.9217 24H1V1H32.9217L24.2362 11.876L23.7379 12.5L24.2362 13.124Z" stroke="#D60000" stroke-width="2"/>
<path d="M6.35213 17.867L6.33813 16.453C6.56213 16.4997 6.79546 16.5417 7.03813 16.579C7.28079 16.6117 7.50479 16.628 7.71013 16.628C8.27479 16.628 8.77413 16.5557 9.20813 16.411C9.64213 16.2663 9.98046 16.061 10.2231 15.795C10.4658 15.5243 10.5871 15.2093 10.5871 14.85C10.5871 14.5747 10.5241 14.3227 10.3981 14.094C10.2721 13.8607 10.0668 13.6787 9.78213 13.548C9.49746 13.4173 9.11713 13.366 8.64113 13.394L7.82213 13.583L7.50013 12.218C7.78013 12.1667 8.04613 12.1037 8.29813 12.029C8.55013 11.9497 8.77179 11.861 8.96313 11.763C9.34113 11.581 9.62579 11.364 9.81713 11.112C10.0131 10.8553 10.1158 10.5753 10.1251 10.272C10.1438 9.87533 10.0225 9.58133 9.76113 9.39C9.49979 9.19867 9.16146 9.103 8.74613 9.103C8.27013 9.103 7.86179 9.18 7.52113 9.334C7.18513 9.48333 6.89579 9.64433 6.65313 9.817L5.98113 8.508C6.13046 8.368 6.36846 8.21633 6.69513 8.053C7.02179 7.88967 7.39746 7.752 7.82213 7.64C8.24679 7.52333 8.67846 7.465 9.11713 7.465C9.75646 7.465 10.3141 7.56067 10.7901 7.752C11.2661 7.94333 11.6348 8.221 11.8961 8.585C12.1621 8.94433 12.2951 9.383 12.2951 9.901C12.2951 10.3583 12.1971 10.769 12.0011 11.133C11.8051 11.4923 11.5391 11.8027 11.2031 12.064C10.8671 12.3253 10.4915 12.54 10.0761 12.708V12.484C10.7155 12.4933 11.2381 12.6193 11.6441 12.862C12.0548 13.1 12.3581 13.408 12.5541 13.786C12.7501 14.1593 12.8481 14.5537 12.8481 14.969C12.8481 15.5337 12.6568 16.0587 12.2741 16.544C11.8961 17.0247 11.3595 17.412 10.6641 17.706C9.97346 18 9.15913 18.147 8.22113 18.147C7.83846 18.147 7.49079 18.1143 7.17813 18.049C6.86546 17.9883 6.59013 17.9277 6.35213 17.867ZM14.9369 18C15.1235 17.608 15.3219 17.1763 15.5319 16.705C15.7419 16.2337 15.9589 15.739 16.1829 15.221C16.4069 14.6983 16.6285 14.1733 16.8479 13.646C17.0719 13.1187 17.2865 12.603 17.4919 12.099C17.6972 11.595 17.8885 11.1237 18.0659 10.685C18.2432 10.2417 18.3972 9.852 18.5279 9.516L13.6769 9.502L13.6839 7.598H20.4599L20.9289 8.256L17.3379 18H14.9369Z" fill="#D60000"/>
</svg>
