<svg width="35" height="25" viewBox="0 0 35 25" fill="none" xmlns="http://www.w3.org/2000/svg">
<path d="M24.2362 13.124L32.9217 24H1V1H32.9217L24.2362 11.876L23.7379 12.5L24.2362 13.124Z" stroke="#D60000" stroke-width="2"/>
<path d="M6.07185 17.867L6.05785 16.453C6.28185 16.4997 6.51519 16.5417 6.75785 16.579C7.00052 16.6117 7.22452 16.628 7.42985 16.628C7.99452 16.628 8.49385 16.5557 8.92785 16.411C9.36185 16.2663 9.70019 16.061 9.94285 15.795C10.1855 15.5243 10.3069 15.2093 10.3069 14.85C10.3069 14.5747 10.2439 14.3227 10.1179 14.094C9.99185 13.8607 9.78652 13.6787 9.50185 13.548C9.21719 13.4173 8.83685 13.366 8.36085 13.394L7.54185 13.583L7.21985 12.218C7.49985 12.1667 7.76585 12.1037 8.01785 12.029C8.26985 11.9497 8.49152 11.861 8.68285 11.763C9.06085 11.581 9.34552 11.364 9.53685 11.112C9.73285 10.8553 9.83552 10.5753 9.84485 10.272C9.86352 9.87533 9.74219 9.58133 9.48085 9.39C9.21952 9.19867 8.88119 9.103 8.46585 9.103C7.98985 9.103 7.58152 9.18 7.24085 9.334C6.90485 9.48333 6.61552 9.64433 6.37285 9.817L5.70085 8.508C5.85019 8.368 6.08819 8.21633 6.41485 8.053C6.74152 7.88967 7.11719 7.752 7.54185 7.64C7.96652 7.52333 8.39819 7.465 8.83685 7.465C9.47619 7.465 10.0339 7.56067 10.5099 7.752C10.9859 7.94333 11.3545 8.221 11.6159 8.585C11.8819 8.94433 12.0149 9.383 12.0149 9.901C12.0149 10.3583 11.9169 10.769 11.7209 11.133C11.5249 11.4923 11.2589 11.8027 10.9229 12.064C10.5869 12.3253 10.2112 12.54 9.79585 12.708V12.484C10.4352 12.4933 10.9579 12.6193 11.3639 12.862C11.7745 13.1 12.0779 13.408 12.2739 13.786C12.4699 14.1593 12.5679 14.5537 12.5679 14.969C12.5679 15.5337 12.3765 16.0587 11.9939 16.544C11.6159 17.0247 11.0792 17.412 10.3839 17.706C9.69319 18 8.87885 18.147 7.94085 18.147C7.55819 18.147 7.21052 18.1143 6.89785 18.049C6.58519 17.9883 6.30985 17.9277 6.07185 17.867ZM17.2606 18.112C16.7006 18.112 16.1826 18.0537 15.7066 17.937C15.2353 17.8157 14.8246 17.6407 14.4746 17.412C14.1246 17.1787 13.8539 16.8893 13.6626 16.544C13.4713 16.1987 13.3756 15.7997 13.3756 15.347C13.3756 14.983 13.4643 14.6213 13.6416 14.262C13.8189 13.898 14.1106 13.5573 14.5166 13.24C14.9226 12.9227 15.4639 12.652 16.1406 12.428L17.0086 13.303C16.6959 13.429 16.4183 13.5853 16.1756 13.772C15.9329 13.954 15.7416 14.1663 15.6016 14.409C15.4616 14.6517 15.3916 14.927 15.3916 15.235C15.3916 15.515 15.4546 15.774 15.5806 16.012C15.7113 16.2453 15.9143 16.432 16.1896 16.572C16.4696 16.712 16.8266 16.782 17.2606 16.782C17.5406 16.782 17.8019 16.726 18.0446 16.614C18.2873 16.4973 18.4833 16.3363 18.6326 16.131C18.7819 15.9257 18.8566 15.6877 18.8566 15.417C18.8566 15.1277 18.7633 14.878 18.5766 14.668C18.3946 14.4533 18.1496 14.2597 17.8416 14.087C17.5383 13.9097 17.2046 13.7347 16.8406 13.562C16.4766 13.3893 16.1103 13.205 15.7416 13.009C15.3776 12.8083 15.0416 12.5773 14.7336 12.316C14.4303 12.05 14.1853 11.7373 13.9986 11.378C13.8166 11.0187 13.7256 10.594 13.7256 10.104C13.7256 9.57667 13.8679 9.11233 14.1526 8.711C14.4373 8.30967 14.8386 7.997 15.3566 7.773C15.8746 7.549 16.4859 7.437 17.1906 7.437C17.8999 7.437 18.5043 7.542 19.0036 7.752C19.5076 7.95733 19.8926 8.24433 20.1586 8.613C20.4246 8.98167 20.5576 9.404 20.5576 9.88C20.5576 10.258 20.4713 10.636 20.2986 11.014C20.1306 11.392 19.8599 11.735 19.4866 12.043C19.1179 12.351 18.6349 12.5913 18.0376 12.764L17.1976 11.91C17.7109 11.7513 18.0796 11.4993 18.3036 11.154C18.5323 10.8087 18.6489 10.4283 18.6536 10.013C18.6629 9.65367 18.5393 9.355 18.2826 9.117C18.0259 8.879 17.6619 8.76 17.1906 8.76C16.7566 8.76 16.3996 8.87433 16.1196 9.103C15.8443 9.327 15.7066 9.607 15.7066 9.943C15.7066 10.251 15.8023 10.5263 15.9936 10.769C16.1849 11.007 16.4369 11.2263 16.7496 11.427C17.0623 11.6277 17.4053 11.8237 17.7786 12.015C18.1519 12.2017 18.5276 12.3953 18.9056 12.596C19.2836 12.7967 19.6289 13.0207 19.9416 13.268C20.2589 13.5107 20.5133 13.7883 20.7046 14.101C20.9006 14.4137 21.0009 14.7753 21.0056 15.186C21.0103 15.8207 20.8446 16.355 20.5086 16.789C20.1773 17.223 19.7293 17.552 19.1646 17.776C18.5999 18 17.9653 18.112 17.2606 18.112Z" fill="#D60000"/>
</svg>
