<svg width="35" height="25" viewBox="0 0 35 25" fill="none" xmlns="http://www.w3.org/2000/svg">
<path d="M24.2362 13.124L32.9217 24H1V1H32.9217L24.2362 11.876L23.7379 12.5L24.2362 13.124Z" stroke="#D60000" stroke-width="2"/>
<path d="M5.3531 17.867L5.3391 16.453C5.5631 16.4997 5.79644 16.5417 6.0391 16.579C6.28177 16.6117 6.50577 16.628 6.7111 16.628C7.27577 16.628 7.7751 16.5557 8.2091 16.411C8.6431 16.2663 8.98144 16.061 9.2241 15.795C9.46677 15.5243 9.5881 15.2093 9.5881 14.85C9.5881 14.5747 9.5251 14.3227 9.3991 14.094C9.2731 13.8607 9.06777 13.6787 8.7831 13.548C8.49844 13.4173 8.1181 13.366 7.6421 13.394L6.8231 13.583L6.5011 12.218C6.7811 12.1667 7.0471 12.1037 7.2991 12.029C7.5511 11.9497 7.77277 11.861 7.9641 11.763C8.3421 11.581 8.62677 11.364 8.8181 11.112C9.0141 10.8553 9.11677 10.5753 9.1261 10.272C9.14477 9.87533 9.02344 9.58133 8.7621 9.39C8.50077 9.19867 8.16244 9.103 7.7471 9.103C7.2711 9.103 6.86277 9.18 6.5221 9.334C6.1861 9.48333 5.89677 9.64433 5.6541 9.817L4.9821 8.508C5.13144 8.368 5.36944 8.21633 5.6961 8.053C6.02277 7.88967 6.39844 7.752 6.8231 7.64C7.24777 7.52333 7.67944 7.465 8.1181 7.465C8.75744 7.465 9.3151 7.56067 9.7911 7.752C10.2671 7.94333 10.6358 8.221 10.8971 8.585C11.1631 8.94433 11.2961 9.383 11.2961 9.901C11.2961 10.3583 11.1981 10.769 11.0021 11.133C10.8061 11.4923 10.5401 11.8027 10.2041 12.064C9.8681 12.3253 9.49244 12.54 9.0771 12.708V12.484C9.71644 12.4933 10.2391 12.6193 10.6451 12.862C11.0558 13.1 11.3591 13.408 11.5551 13.786C11.7511 14.1593 11.8491 14.5537 11.8491 14.969C11.8491 15.5337 11.6578 16.0587 11.2751 16.544C10.8971 17.0247 10.3604 17.412 9.6651 17.706C8.97444 18 8.1601 18.147 7.2221 18.147C6.83944 18.147 6.49177 18.1143 6.1791 18.049C5.86644 17.9883 5.5911 17.9277 5.3531 17.867ZM12.7548 11.301C12.7548 10.559 12.9088 9.89867 13.2168 9.32C13.5295 8.74133 13.9868 8.28633 14.5888 7.955C15.1908 7.62367 15.9328 7.458 16.8148 7.458C17.6035 7.458 18.2802 7.64233 18.8448 8.011C19.4142 8.37967 19.8505 8.88133 20.1538 9.516C20.4572 10.1507 20.6088 10.8693 20.6088 11.672C20.6088 12.4933 20.4828 13.2587 20.2308 13.968C19.9788 14.6727 19.6382 15.312 19.2088 15.886C18.7795 16.4553 18.2988 16.9523 17.7668 17.377C17.2395 17.8017 16.6958 18.1423 16.1358 18.399C15.5805 18.6603 15.0485 18.8307 14.5398 18.91L13.9728 17.664C14.6542 17.496 15.2632 17.2183 15.7998 16.831C16.3412 16.439 16.7985 15.9863 17.1718 15.473C17.5498 14.955 17.8368 14.4183 18.0328 13.863C18.2335 13.303 18.3385 12.7687 18.3478 12.26C18.3572 11.6113 18.3035 11.0373 18.1868 10.538C18.0748 10.0387 17.8858 9.649 17.6198 9.369C17.3538 9.08433 16.9968 8.942 16.5488 8.942C16.2035 8.942 15.9072 9.02367 15.6598 9.187C15.4125 9.35033 15.2212 9.572 15.0858 9.852C14.9505 10.132 14.8828 10.4493 14.8828 10.804C14.8828 11.5553 15.0182 12.1083 15.2888 12.463C15.5595 12.813 15.8932 12.988 16.2898 12.988C16.5745 12.988 16.7845 12.9647 16.9198 12.918C17.0598 12.8713 17.1858 12.8247 17.2978 12.778L17.7108 13.926C17.6035 14.052 17.3748 14.1943 17.0248 14.353C16.6795 14.5117 16.2198 14.591 15.6458 14.591C15.0578 14.591 14.5468 14.444 14.1128 14.15C13.6835 13.8513 13.3498 13.4523 13.1118 12.953C12.8738 12.4537 12.7548 11.903 12.7548 11.301Z" fill="#D60000"/>
</svg>
