<svg width="35" height="25" viewBox="0 0 35 25" fill="none" xmlns="http://www.w3.org/2000/svg">
<path d="M24.2362 13.124L32.9217 24H1V1H32.9217L24.2362 11.876L23.7379 12.5L24.2362 13.124Z" stroke="#D60000" stroke-width="2"/>
<path d="M9.21781 15.942L8.71381 15.109C8.90048 14.717 9.07781 14.3367 9.24581 13.968C9.41381 13.5947 9.57715 13.2307 9.73581 12.876C9.89915 12.5167 10.0578 12.162 10.2118 11.812C10.3658 11.462 10.5198 11.112 10.6738 10.762C10.8278 10.412 10.9841 10.0597 11.1428 9.705C11.3061 9.35033 11.4718 8.98633 11.6398 8.613C11.8078 8.23967 11.9828 7.85933 12.1648 7.472H12.8508L14.2788 8.27C14.1108 8.58267 13.9521 8.879 13.8028 9.159C13.6581 9.439 13.5181 9.712 13.3828 9.978C13.2475 10.2393 13.1145 10.5007 12.9838 10.762C12.8531 11.0187 12.7178 11.2777 12.5778 11.539C12.4425 11.8003 12.3001 12.0733 12.1508 12.358C12.0061 12.638 11.8498 12.932 11.6818 13.24L10.9958 14.388H17.3238V15.942H9.21781ZM13.7258 18V14.346L13.9358 11.392H15.7838V18H13.7258Z" fill="#D60000"/>
</svg>
