<svg width="35" height="25" viewBox="0 0 35 25" fill="none" xmlns="http://www.w3.org/2000/svg">
<path d="M24.2362 13.124L32.9217 24H1V1H32.9217L24.2362 11.876L23.7379 12.5L24.2362 13.124Z" stroke="#D60000" stroke-width="2"/>
<path d="M5.20063 15.942L4.69663 15.109C4.88329 14.717 5.06063 14.3367 5.22863 13.968C5.39663 13.5947 5.55996 13.2307 5.71863 12.876C5.88196 12.5167 6.04063 12.162 6.19463 11.812C6.34863 11.462 6.50263 11.112 6.65663 10.762C6.81063 10.412 6.96696 10.0597 7.12563 9.705C7.28896 9.35033 7.45463 8.98633 7.62263 8.613C7.79063 8.23967 7.96563 7.85933 8.14763 7.472H8.83363L10.2616 8.27C10.0936 8.58267 9.93496 8.879 9.78563 9.159C9.64096 9.439 9.50096 9.712 9.36563 9.978C9.23029 10.2393 9.09729 10.5007 8.96663 10.762C8.83596 11.0187 8.70063 11.2777 8.56063 11.539C8.42529 11.8003 8.28296 12.0733 8.13363 12.358C7.98896 12.638 7.83263 12.932 7.66463 13.24L6.97863 14.388H13.3066V15.942H5.20063ZM9.70863 18V14.346L9.91863 11.392H11.7666V18H9.70863ZM17.959 18.112C17.231 18.112 16.608 17.9627 16.09 17.664C15.5767 17.3653 15.1567 16.9593 14.83 16.446C14.508 15.928 14.2723 15.3423 14.123 14.689C13.9737 14.031 13.9013 13.345 13.906 12.631C13.92 11.581 14.1137 10.671 14.487 9.901C14.865 9.12633 15.369 8.529 15.999 8.109C16.629 7.689 17.3383 7.479 18.127 7.479C18.8643 7.479 19.4873 7.619 19.996 7.899C20.5093 8.17433 20.9223 8.55467 21.235 9.04C21.5523 9.52533 21.781 10.0853 21.921 10.72C22.061 11.35 22.1287 12.0197 22.124 12.729C22.1147 13.8117 21.9303 14.7567 21.571 15.564C21.2163 16.3667 20.7263 16.992 20.101 17.44C19.4757 17.888 18.7617 18.112 17.959 18.112ZM18.015 16.474C18.617 16.4787 19.0743 16.1823 19.387 15.585C19.7043 14.9877 19.863 14.059 19.863 12.799C19.863 12.0523 19.7977 11.4037 19.667 10.853C19.5363 10.3023 19.3357 9.87533 19.065 9.572C18.7943 9.26867 18.4537 9.117 18.043 9.117C17.441 9.117 16.979 9.40633 16.657 9.985C16.3397 10.5637 16.181 11.427 16.181 12.575C16.181 13.317 16.2463 13.982 16.377 14.57C16.5123 15.1533 16.7153 15.6153 16.986 15.956C17.2567 16.2967 17.5997 16.4693 18.015 16.474Z" fill="#D60000"/>
</svg>
