<svg width="35" height="25" viewBox="0 0 35 25" fill="none" xmlns="http://www.w3.org/2000/svg">
<path d="M24.2362 13.124L32.9217 24H1V1H32.9217L24.2362 11.876L23.7379 12.5L24.2362 13.124Z" stroke="#D60000" stroke-width="2"/>
<path d="M11.2948 18.14C11.1782 18.14 11.0242 18.133 10.8328 18.119C10.6462 18.105 10.4828 18.0817 10.3428 18.049V16.537C10.4315 16.5417 10.5178 16.5463 10.6018 16.551C10.6905 16.551 10.7745 16.551 10.8538 16.551C11.6378 16.551 12.3168 16.4623 12.8908 16.285C13.4695 16.1077 13.9152 15.8557 14.2278 15.529C14.5405 15.2023 14.6968 14.815 14.6968 14.367C14.6968 13.8397 14.5428 13.4523 14.2348 13.205C13.9315 12.9577 13.4392 12.834 12.7578 12.834C12.4638 12.834 12.1465 12.8737 11.8058 12.953C11.4698 13.0323 11.1408 13.128 10.8188 13.24L10.4198 13.016L10.8328 7.598H16.5868L16.3908 9.369H12.3938L12.1558 11.539C12.4498 11.455 12.7368 11.392 13.0168 11.35C13.2968 11.308 13.5628 11.287 13.8148 11.287C14.8182 11.287 15.5788 11.5507 16.0968 12.078C16.6195 12.6007 16.8808 13.331 16.8808 14.269C16.8808 14.8197 16.7548 15.3307 16.5028 15.802C16.2508 16.2687 15.8845 16.677 15.4038 17.027C14.9232 17.377 14.3375 17.65 13.6468 17.846C12.9562 18.042 12.1722 18.14 11.2948 18.14Z" fill="#D60000"/>
</svg>
