<svg width="35" height="25" viewBox="0 0 35 25" fill="none" xmlns="http://www.w3.org/2000/svg">
<path d="M24.2362 13.124L32.9217 24H1V1H32.9217L24.2362 11.876L23.7379 12.5L24.2362 13.124Z" stroke="#D60000" stroke-width="2"/>
<path d="M9.04981 13.891C9.04981 13.093 9.17115 12.3533 9.41381 11.672C9.66115 10.9907 9.99248 10.3747 10.4078 9.824C10.8231 9.26867 11.2898 8.788 11.8078 8.382C12.3258 7.976 12.8578 7.64933 13.4038 7.402C13.9545 7.15467 14.4818 6.99133 14.9858 6.912L15.4968 8.207C14.8528 8.37033 14.2741 8.63167 13.7608 8.991C13.2475 9.34567 12.8111 9.761 12.4518 10.237C12.0971 10.713 11.8241 11.2193 11.6328 11.756C11.4415 12.2927 11.3411 12.8223 11.3318 13.345C11.3225 13.961 11.3715 14.5187 11.4788 15.018C11.5861 15.5127 11.7705 15.907 12.0318 16.201C12.2978 16.4903 12.6595 16.635 13.1168 16.635C13.4948 16.635 13.8075 16.5487 14.0548 16.376C14.3021 16.1987 14.4888 15.956 14.6148 15.648C14.7408 15.34 14.8038 14.9923 14.8038 14.605C14.8038 14.115 14.7408 13.7277 14.6148 13.443C14.4888 13.1537 14.3255 12.9507 14.1248 12.834C13.9241 12.7127 13.7071 12.652 13.4738 12.652C13.2218 12.652 13.0118 12.6823 12.8438 12.743C12.6805 12.8037 12.5475 12.8597 12.4448 12.911L12.0038 11.749C12.0831 11.6603 12.2161 11.56 12.4028 11.448C12.5895 11.336 12.8228 11.2403 13.1028 11.161C13.3828 11.077 13.7048 11.035 14.0688 11.035C14.6521 11.035 15.1585 11.175 15.5878 11.455C16.0171 11.7303 16.3485 12.106 16.5818 12.582C16.8151 13.058 16.9318 13.5923 16.9318 14.185C16.9318 14.7077 16.8501 15.2047 16.6868 15.676C16.5235 16.1473 16.2738 16.5673 15.9378 16.936C15.6065 17.3 15.1888 17.587 14.6848 17.797C14.1808 18.007 13.5881 18.112 12.9068 18.112C12.1368 18.112 11.4625 17.9253 10.8838 17.552C10.3051 17.1787 9.85481 16.6723 9.53281 16.033C9.21081 15.3937 9.04981 14.6797 9.04981 13.891Z" fill="#D60000"/>
</svg>
