<svg width="35" height="25" viewBox="0 0 35 25" fill="none" xmlns="http://www.w3.org/2000/svg">
<path d="M24.2362 13.124L32.9217 24H1V1H32.9217L24.2362 11.876L23.7379 12.5L24.2362 13.124Z" stroke="#D60000" stroke-width="2"/>
<path d="M11.2605 18C11.4472 17.608 11.6455 17.1763 11.8555 16.705C12.0655 16.2337 12.2825 15.739 12.5065 15.221C12.7305 14.6983 12.9522 14.1733 13.1715 13.646C13.3955 13.1187 13.6102 12.603 13.8155 12.099C14.0208 11.595 14.2122 11.1237 14.3895 10.685C14.5668 10.2417 14.7208 9.852 14.8515 9.516L10.0005 9.502L10.0075 7.598H16.7835L17.2525 8.256L13.6615 18H11.2605Z" fill="#D60000"/>
</svg>
