<svg width="35" height="25" viewBox="0 0 35 25" fill="none" xmlns="http://www.w3.org/2000/svg">
<path d="M24.2362 13.124L32.9217 24H1V1H32.9217L24.2362 11.876L23.7379 12.5L24.2362 13.124Z" stroke="#D60000" stroke-width="2"/>
<path d="M13.0842 18.112C12.5242 18.112 12.0062 18.0537 11.5302 17.937C11.0589 17.8157 10.6482 17.6407 10.2982 17.412C9.94822 17.1787 9.67755 16.8893 9.48622 16.544C9.29489 16.1987 9.19922 15.7997 9.19922 15.347C9.19922 14.983 9.28789 14.6213 9.46522 14.262C9.64255 13.898 9.93422 13.5573 10.3402 13.24C10.7462 12.9227 11.2876 12.652 11.9642 12.428L12.8322 13.303C12.5196 13.429 12.2419 13.5853 11.9992 13.772C11.7566 13.954 11.5652 14.1663 11.4252 14.409C11.2852 14.6517 11.2152 14.927 11.2152 15.235C11.2152 15.515 11.2782 15.774 11.4042 16.012C11.5349 16.2453 11.7379 16.432 12.0132 16.572C12.2932 16.712 12.6502 16.782 13.0842 16.782C13.3642 16.782 13.6256 16.726 13.8682 16.614C14.1109 16.4973 14.3069 16.3363 14.4562 16.131C14.6056 15.9257 14.6802 15.6877 14.6802 15.417C14.6802 15.1277 14.5869 14.878 14.4002 14.668C14.2182 14.4533 13.9732 14.2597 13.6652 14.087C13.3619 13.9097 13.0282 13.7347 12.6642 13.562C12.3002 13.3893 11.9339 13.205 11.5652 13.009C11.2012 12.8083 10.8652 12.5773 10.5572 12.316C10.2539 12.05 10.0089 11.7373 9.82222 11.378C9.64022 11.0187 9.54922 10.594 9.54922 10.104C9.54922 9.57667 9.69155 9.11233 9.97622 8.711C10.2609 8.30967 10.6622 7.997 11.1802 7.773C11.6982 7.549 12.3096 7.437 13.0142 7.437C13.7236 7.437 14.3279 7.542 14.8272 7.752C15.3312 7.95733 15.7162 8.24433 15.9822 8.613C16.2482 8.98167 16.3812 9.404 16.3812 9.88C16.3812 10.258 16.2949 10.636 16.1222 11.014C15.9542 11.392 15.6836 11.735 15.3102 12.043C14.9416 12.351 14.4586 12.5913 13.8612 12.764L13.0212 11.91C13.5346 11.7513 13.9032 11.4993 14.1272 11.154C14.3559 10.8087 14.4726 10.4283 14.4772 10.013C14.4866 9.65367 14.3629 9.355 14.1062 9.117C13.8496 8.879 13.4856 8.76 13.0142 8.76C12.5802 8.76 12.2232 8.87433 11.9432 9.103C11.6679 9.327 11.5302 9.607 11.5302 9.943C11.5302 10.251 11.6259 10.5263 11.8172 10.769C12.0086 11.007 12.2606 11.2263 12.5732 11.427C12.8859 11.6277 13.2289 11.8237 13.6022 12.015C13.9756 12.2017 14.3512 12.3953 14.7292 12.596C15.1072 12.7967 15.4526 13.0207 15.7652 13.268C16.0826 13.5107 16.3369 13.7883 16.5282 14.101C16.7242 14.4137 16.8246 14.7753 16.8292 15.186C16.8339 15.8207 16.6682 16.355 16.3322 16.789C16.0009 17.223 15.5529 17.552 14.9882 17.776C14.4236 18 13.7889 18.112 13.0842 18.112Z" fill="#D60000"/>
</svg>
