<svg width="35" height="25" viewBox="0 0 35 25" fill="none" xmlns="http://www.w3.org/2000/svg">
<path d="M24.2362 13.124L32.9217 24H1V1H32.9217L24.2362 11.876L23.7379 12.5L24.2362 13.124Z" stroke="#D60000" stroke-width="2"/>
<path d="M9.07847 11.301C9.07847 10.559 9.23247 9.89867 9.54047 9.32C9.85314 8.74133 10.3105 8.28633 10.9125 7.955C11.5145 7.62367 12.2565 7.458 13.1385 7.458C13.9271 7.458 14.6038 7.64233 15.1685 8.011C15.7378 8.37967 16.1741 8.88133 16.4775 9.516C16.7808 10.1507 16.9325 10.8693 16.9325 11.672C16.9325 12.4933 16.8065 13.2587 16.5545 13.968C16.3025 14.6727 15.9618 15.312 15.5325 15.886C15.1031 16.4553 14.6225 16.9523 14.0905 17.377C13.5631 17.8017 13.0195 18.1423 12.4595 18.399C11.9041 18.6603 11.3721 18.8307 10.8635 18.91L10.2965 17.664C10.9778 17.496 11.5868 17.2183 12.1235 16.831C12.6648 16.439 13.1221 15.9863 13.4955 15.473C13.8735 14.955 14.1605 14.4183 14.3565 13.863C14.5571 13.303 14.6621 12.7687 14.6715 12.26C14.6808 11.6113 14.6271 11.0373 14.5105 10.538C14.3985 10.0387 14.2095 9.649 13.9435 9.369C13.6775 9.08433 13.3205 8.942 12.8725 8.942C12.5271 8.942 12.2308 9.02367 11.9835 9.187C11.7361 9.35033 11.5448 9.572 11.4095 9.852C11.2741 10.132 11.2065 10.4493 11.2065 10.804C11.2065 11.5553 11.3418 12.1083 11.6125 12.463C11.8831 12.813 12.2168 12.988 12.6135 12.988C12.8981 12.988 13.1081 12.9647 13.2435 12.918C13.3835 12.8713 13.5095 12.8247 13.6215 12.778L14.0345 13.926C13.9271 14.052 13.6985 14.1943 13.3485 14.353C13.0031 14.5117 12.5435 14.591 11.9695 14.591C11.3815 14.591 10.8705 14.444 10.4365 14.15C10.0071 13.8513 9.67347 13.4523 9.43547 12.953C9.19747 12.4537 9.07847 11.903 9.07847 11.301Z" fill="#D60000"/>
</svg>
